<svg id="footprint" xmlns="http://www.w3.org/2000/svg" width="576" height="637.7" viewBox="0 0 576 637.7">
  <defs>
    <style>
      .cls-1 {
        fill: #ebebeb;
      }
    </style>
  </defs>
  <title>gnav_bg_img</title>
  <g>
    <g>
      <g>
        <path class="cls-1" d="M42.7,609.2c2.2-.7,2.5,0,2.6.2s-5,4.2-7.4,5.4l-1.3.7a30.3,30.3,0,0,0-2.9,1.8c-3.2,2.1-8,5.2-10.8,6.1a4,4,0,0,1-1.4.3c0-.5.9-2.2,10.8-8.2l1.1-.6,1.2-.9c2.4-1.6,5.7-3.9,8.1-4.8Z" transform="translate(-21.5 -16.6)"/>
        <path class="cls-1" d="M27.6,620.4c2.1-.7,6.5-.5,8.8-.4h1.9c4.1-.2,9.3-.7,9.6.6s0,.9-.8,1.1-3.5.5-5.7.4H38.1a61.9,61.9,0,0,1-7.2-.2c-3.8-.3-4-1.1-4-1.1S27.1,620.5,27.6,620.4Z" transform="translate(-21.5 -16.6)"/>
        <path class="cls-1" d="M33.7,600.4h.8c.2.9-.6,4.3-4.8,12.9a10.7,10.7,0,0,0-.6,1.7c-.5,1.5-1.5,4.7-2.5,5.1h-.4c-.2-.1-1.2-1.1,2.5-9.5l.2-.5A24.9,24.9,0,0,0,30,607C31,604.2,32.1,601,33.7,600.4Z" transform="translate(-21.5 -16.6)"/>
      </g>
      <g>
        <path class="cls-1" d="M73,641.1c2.3.4,2.3,1.2,2.3,1.4s-6.8,1.2-9.6.9h-5c-3.9.2-9.8.3-12.7-.4-.9-.2-1.3-.4-1.3-.5s.5-.5,2.5-.8,5.2-.5,11.2-.6h2.8l5-.2a23.3,23.3,0,0,1,4.8.3Z" transform="translate(-21.5 -16.6)"/>
        <path class="cls-1" d="M53.7,642.9c2.1.5,5.9,2.9,7.9,4.2a6.8,6.8,0,0,0,1.7,1c3.8,2,8.6,4.3,8.2,5.5s-.4.8-1.3.7a24,24,0,0,1-5.3-2.7l-2-1.2-.9-.5a73.7,73.7,0,0,1-6.3-3.9c-3.1-2.3-2.9-3.1-2.9-3.1S53.2,642.8,53.7,642.9Z" transform="translate(-21.5 -16.6)"/>
        <path class="cls-1" d="M69.5,628.9a1.1,1.1,0,0,1,.7.3c-.1.4-.8,1.3-2.5,2.7a85.1,85.1,0,0,1-8.4,5.9l-1.4,1.1c-1.3,1.1-3.8,3.3-4.9,3.1l-.3-.2c-.1-.2-.2-.5.7-1.6s2.7-2.6,6.5-5.3l.5-.4,2.4-1.9C65.2,630.7,67.8,628.6,69.5,628.9Z" transform="translate(-21.5 -16.6)"/>
      </g>
    </g>
    <g>
      <g>
        <path class="cls-1" d="M118.3,597.9c1.9-1.1,2.4-.5,2.5-.3s-4.1,4.9-6.2,6.5l-1.1.9a23.1,23.1,0,0,0-2.6,2.2c-2.8,2.4-7,6.2-9.7,7.4a2.9,2.9,0,0,1-1.3.4c0-.2.1-.8,1.4-2.2a98.5,98.5,0,0,1,8-7.2l1-.8,1-1c2.1-1.9,4.8-4.7,7-5.9Z" transform="translate(-21.5 -16.6)"/>
        <path class="cls-1" d="M105.4,611c1.9-.9,6.2-1.3,8.6-1.5l1.8-.2c3.9-.9,8.9-2.1,9.4-.9s.2.8-.5,1.2-3.4,1-5.5,1.3l-2.3.3-1,.2a54.3,54.3,0,0,1-7.1.8c-3.7.1-4.1-.6-4.1-.6S105,611.2,105.4,611Z" transform="translate(-21.5 -16.6)"/>
        <path class="cls-1" d="M108.5,590.5l.7-.2c.3.8.1,4.3-2.8,13.3a16.4,16.4,0,0,0-.3,1.8c-.3,1.6-.8,4.9-1.8,5.3H104c-.3,0-1.2-.9,1.1-9.7l.2-.6c.2-.9.4-2,.6-3C106.5,594.5,107.1,591.2,108.5,590.5Z" transform="translate(-21.5 -16.6)"/>
      </g>
      <g>
        <path class="cls-1" d="M154,623.5c2.4,0,2.5.7,2.5,1s-6.6,2.4-9.4,2.9l-1.6.2-3.6.8-6.7,1.4-3.4.5H129a5.9,5.9,0,0,1-1.4-.3c.1-.2.5-.7,2.4-1.3s5.2-1.5,11.2-2.6l1.4-.2,1.5-.4c3-.8,7.1-2,9.9-2.1Z" transform="translate(-21.5 -16.6)"/>
        <path class="cls-1" d="M134.8,629.2c2.2,0,6.5,1.8,8.8,2.7l1.9.7c4.2,1,9.7,2.2,9.5,3.5s-.3.9-1.2.9a24.1,24.1,0,0,1-6-1.4l-2.3-.8-1-.3a72.1,72.1,0,0,1-7.1-2.6c-3.6-1.7-3.6-2.5-3.6-2.5Z" transform="translate(-21.5 -16.6)"/>
        <path class="cls-1" d="M147.9,612.3l.8.2a10.2,10.2,0,0,1-2,3.1c-.6.9-1.6,1.9-2.7,3.2l-2,2-2.5,2.3-1.2,1.4c-1.1,1.3-3.2,4-4.4,3.9h-.3c-.2-.2-.7-1.5,5.9-8.1l.5-.5a22,22,0,0,0,2-2.3C144,615,146.1,612.3,147.9,612.3Z" transform="translate(-21.5 -16.6)"/>
      </g>
    </g>
    <g>
      <g>
        <path class="cls-1" d="M186.8,570c1.5-1.5,2.1-1.1,2.3-.9s-2.5,5.9-4.2,8l-.8,1.1c-.4.5-1,1.5-1.9,2.9-1.9,3.3-4.9,7.8-7.1,9.8-.7.6-1,.7-1.1.7s-.1-.8.7-2.5,1-1.9,1.9-3.4,2.1-3.2,3.6-5.6l.7-1.1.8-1.3c.7-1.2,1.5-2.7,2.4-4a19.7,19.7,0,0,1,2.7-3.7Z" transform="translate(-21.5 -16.6)"/>
        <path class="cls-1" d="M178.1,586.3c1.5-1.3,5.6-3,7.7-3.9l1.7-.7c3.6-2,8-4.5,8.8-3.5s.5.7-.1,1.3-3,1.9-5,2.8l-2,1-.9.4c-1.6.7-4.2,2-6.6,2.8s-4.1.6-4.1.6A1,1,0,0,1,178.1,586.3Z" transform="translate(-21.5 -16.6)"/>
        <path class="cls-1" d="M175.1,565.8l.7-.4c.5.7,1.3,4.1,1.1,13.6,0,.4.1,1,.2,1.8s.7,4.8-.1,5.5h-.3c-.2,0-.5-.1-.9-1.4a37.8,37.8,0,0,1-.9-8.1v-.6l-.3-3.1C174.4,570.2,174,566.9,175.1,565.8Z" transform="translate(-21.5 -16.6)"/>
      </g>
      <g>
        <path class="cls-1" d="M228,585.1c2.3-.7,2.6,0,2.7.2s-5.5,4.2-8.2,5.3l-1.4.5-3.2,1.8c-1.7.9-3.9,2.1-6.1,3.1a26.2,26.2,0,0,1-5.7,2.2c-.9.2-1.3.2-1.4.1s1.2-2,11.9-7.3l1.2-.6,1.4-.8,4.4-2.5a23.5,23.5,0,0,1,4.4-2Z" transform="translate(-21.5 -16.6)"/>
        <path class="cls-1" d="M211.3,595.5c2.2-.5,6.7.1,9.2.3h1.9c2.2,0,4.6-.1,6.6.1s3.3.3,3.4.9,0,1-.9,1.2a19.5,19.5,0,0,1-6,.1H222a58,58,0,0,1-7.5-.7c-3.9-.6-4-1.4-4-1.4S210.8,595.7,211.3,595.5Z" transform="translate(-21.5 -16.6)"/>
        <path class="cls-1" d="M219.3,575.9h.8a11.7,11.7,0,0,1-1,3.5,83.2,83.2,0,0,1-4.9,9.1,9.1,9.1,0,0,0-.8,1.7c-.7,1.5-2,4.7-3.1,4.9s-.2.1-.4,0-1-1.2,3.5-9.4l.3-.6c.4-.8.9-1.8,1.3-2.8C216.3,579.5,217.6,576.4,219.3,575.9Z" transform="translate(-21.5 -16.6)"/>
      </g>
    </g>
    <g>
      <g>
        <path class="cls-1" d="M247.6,525.6c1.1-1.9,1.8-1.5,2.1-1.4s.3,1.8-.3,3.6a35.9,35.9,0,0,1-2.1,5l-.6,1.3c-.2.5-.6,1.6-1.1,3.2s-1.4,3.9-2.3,6a29.5,29.5,0,0,1-2.7,5.1c-.5.8-.8,1-.9,1s-.3-.7.2-2.6a72,72,0,0,1,3.5-10.1,8.7,8.7,0,0,1,.5-1.2l.4-1.4c.9-2.7,2-6.4,3.3-8.5Z" transform="translate(-21.5 -16.6)"/>
        <path class="cls-1" d="M242.6,543.3a14.7,14.7,0,0,1,3.1-2.9l3.6-2.6,1.5-1c3.1-2.7,6.8-6.1,7.9-5.3s.6.6.1,1.3a20.3,20.3,0,0,1-4.2,3.8l-1.8,1.4-.8.6c-1.4,1-3.6,2.8-5.8,4.1s-3.9,1.4-3.9,1.4S242.3,543.7,242.6,543.3Z" transform="translate(-21.5 -16.6)"/>
        <path class="cls-1" d="M235.4,523.8a1,1,0,0,1,.6-.5c.5.6,2.1,3.8,4,13a9.6,9.6,0,0,0,.5,1.7c.6,1.5,1.6,4.7,1,5.5s-.1.2-.3.2-1.5-.2-3.7-9.1v-.5c-.2-1-.6-2-.9-3C235.6,528.3,234.5,525.1,235.4,523.8Z" transform="translate(-21.5 -16.6)"/>
      </g>
      <g>
        <path class="cls-1" d="M291.1,531c2.1-1.3,2.6-.6,2.7-.4s-4.5,5.3-6.8,7l-1.3.9L283,541c-3.1,2.6-7.6,6.6-10.4,7.9-.9.4-1.3.5-1.4.4s.7-2.2,10.1-9.9a4.8,4.8,0,0,0,1-.9l1.2-1a49.6,49.6,0,0,1,7.6-6.5Z" transform="translate(-21.5 -16.6)"/>
        <path class="cls-1" d="M277.1,545.1c2-1,6.6-1.5,9-1.9l2-.3c4.2-1.1,9.6-2.6,10-1.4s.2.9-.6,1.4a27.1,27.1,0,0,1-5.9,1.6l-2.4.4-1,.2a59.8,59.8,0,0,1-7.6,1.1c-3.9.3-4.2-.4-4.2-.4S276.6,545.4,277.1,545.1Z" transform="translate(-21.5 -16.6)"/>
        <path class="cls-1" d="M280.5,524.1a.9.9,0,0,1,.7-.3c.2.4.2,1.5-.1,3.7a71.9,71.9,0,0,1-2.8,10l-.4,1.9c-.3,1.6-.9,4.9-1.9,5.5h-.4c-.3-.1-1.3-1,1.3-10l.2-.6.6-3.1C278.3,528.2,279,524.9,280.5,524.1Z" transform="translate(-21.5 -16.6)"/>
      </g>
    </g>
    <g>
      <g>
        <path class="cls-1" d="M295.4,468.3c.6-2,1.4-1.9,1.6-1.8s.8,1.7.7,3.6a50.5,50.5,0,0,1-.8,5.3l-.2,1.4c-.1.6-.2,1.8-.3,3.4s-.4,4.2-.7,6.4a36.2,36.2,0,0,1-1.3,5.6c-.3.9-.6,1.2-.7,1.2s-.4-.6-.5-2.5.3-5.1.9-10.7a8.5,8.5,0,0,0,.1-1.3v-1.4c.2-2.9.3-6.8,1.1-9.2Z" transform="translate(-21.5 -16.6)"/>
        <path class="cls-1" d="M295,486.7c.8-1.9,3.6-5.2,5.2-6.9l1.1-1.4c1.2-1.7,2.5-3.6,3.6-5s2.1-2.4,2.6-2.2.8.5.5,1.3-1.7,3.1-3.1,4.7l-1.4,1.8-.6.8a47.7,47.7,0,0,1-4.6,5.5,11.4,11.4,0,0,1-2.7,2.2l-.7.2C294.8,487.6,294.8,487.2,295,486.7Z" transform="translate(-21.5 -16.6)"/>
        <path class="cls-1" d="M283.1,469.7l.4-.6c.8.4,3.1,3.1,7.2,11.6a9.3,9.3,0,0,0,1,1.5c.9,1.3,2.7,4.1,2.3,5.1l-.2.2c-.3.1-1.5.2-5.9-7.8l-.3-.5c-.5-.9-1-1.8-1.6-2.7C284.4,474,282.6,471.2,283.1,469.7Z" transform="translate(-21.5 -16.6)"/>
      </g>
      <g>
        <path class="cls-1" d="M338.9,462.6c1.7-1.7,2.3-1.2,2.5-1.1s-.2,2.1-1.3,3.8-2.7,3.7-3.6,4.8l-.9,1.2-2.1,3.1-4,5.6a28,28,0,0,1-4.1,4.6c-.7.7-1.1.8-1.2.8s-.1-.8.9-2.6a89.8,89.8,0,0,1,6.4-9.5l.7-1.1.9-1.4c1.6-2.6,3.8-6.2,5.8-8.2Z" transform="translate(-21.5 -16.6)"/>
        <path class="cls-1" d="M328.8,479.8c1.7-1.4,6-3.1,8.3-4.1l1.8-.7c3.8-2.2,8.6-5,9.4-3.9s.4.8-.3,1.4-3.2,2.1-5.3,3.1l-2.2,1-1,.4a50.8,50.8,0,0,1-6.9,3c-3.8,1.3-4.3.6-4.3.6S328.4,480.2,328.8,479.8Z" transform="translate(-21.5 -16.6)"/>
        <path class="cls-1" d="M326.8,458.6l.7-.4c.3.3.5,1.4.7,3.6a60.5,60.5,0,0,1-.1,10.4,13.6,13.6,0,0,0,.1,1.8c.1,1.7.4,5.1-.5,5.9h-.4c-.3,0-1.4-.6-1.2-10v-.6c0-1,0-2.1-.1-3.1C325.8,463.2,325.5,459.8,326.8,458.6Z" transform="translate(-21.5 -16.6)"/>
      </g>
    </g>
    <g>
      <g>
        <path class="cls-1" d="M325.6,402a3.3,3.3,0,0,1,.4-1.9l.5-.3c.7-.1,1.5,1.3,1.9,3a49.9,49.9,0,0,1,1,5.1l.3,1.4a3.5,3.5,0,0,0,.3,1.2c.1.6.2,1.2.4,2s.9,4,1.3,6.2a16.3,16.3,0,0,1,.3,3.1,10.4,10.4,0,0,1,0,2.5,3.4,3.4,0,0,1-.3,1.4c-.2-.1-.6-.5-1.2-2.3s-.6-2.1-.9-3.8-.9-3.8-1.4-6.5c-.1-.6-.2-1-.2-1.2l-.3-1.4c-.8-2.6-2-6.2-2.1-8.5Z" transform="translate(-21.5 -16.6)"/>
        <path class="cls-1" d="M331.1,419c0-2.1,1.9-5.9,2.8-8l.6-1.6c.6-2,1.2-4.1,1.8-5.8s1.1-2.8,1.7-2.8.9.2.9,1.1a5.6,5.6,0,0,1-.3,2.4c-.3.9-.7,1.9-1.1,2.9l-.7,2.1-.3.9a50.7,50.7,0,0,1-2.7,6.5c-1.7,3.2-2.5,3.2-2.5,3.2S331.1,419.5,331.1,419Z" transform="translate(-21.5 -16.6)"/>
        <path class="cls-1" d="M314.6,406.5a1.4,1.4,0,0,1,.2-.6,11.1,11.1,0,0,1,3,1.8,62.3,62.3,0,0,1,7.3,6.8l1.4,1.1c1.3,1,3.9,3.1,3.8,4.2l-.2.2c-.1.1-.4.3-1.5-.4a41.7,41.7,0,0,1-6.4-5.3l-.4-.4-2.3-2C317.2,410,314.6,408,314.6,406.5Z" transform="translate(-21.5 -16.6)"/>
      </g>
      <g>
        <path class="cls-1" d="M363.6,380.3c.5-1.3.8-1.8,1.1-2a.7.7,0,0,1,.7-.2c.4.1.6.6.6,1.3a11,11,0,0,1-.2,3c-.3,2.2-.9,4.8-1.2,6.3s-.3,1.1-.4,1.6-.5,2-.9,3.9-.4,2.2-.7,3.4a12.9,12.9,0,0,1-.4,1.9l-.5,1.8a39.8,39.8,0,0,1-2.3,6.1c-.5.9-.8,1.2-.9,1.2s-.3-.8,0-2.8a43,43,0,0,1,.8-4.4c.2-.9.6-2,.8-3.3l1-4.2a7.8,7.8,0,0,1,.3-1.4l.3-1.6c.3-1.6.5-3.6.8-5.5a30.1,30.1,0,0,1,1.1-5.1Z" transform="translate(-21.5 -16.6)"/>
        <path class="cls-1" d="M361,401.4a59.3,59.3,0,0,1,6.2-7.4,8.1,8.1,0,0,0,1.4-1.6l2.2-2.9a33.9,33.9,0,0,1,2-2.8c1.2-1.7,2.3-2.9,2.9-2.5s.7.6.3,1.6a8.7,8.7,0,0,1-1.4,2.7,20.1,20.1,0,0,1-2.2,2.9l-1.7,2-.7.9c-1.3,1.5-3.4,4-5.4,5.9s-3.9,2.2-3.9,2.2S360.7,401.9,361,401.4Z" transform="translate(-21.5 -16.6)"/>
        <path class="cls-1" d="M350.9,382a1.8,1.8,0,0,1,.5-.7c.4.2,1.1,1,2.2,3s1.1,2.2,1.8,3.9a50.6,50.6,0,0,1,2.1,6c.2.4.4,1,.8,1.8a18.1,18.1,0,0,1,1.3,3.1c.4,1.2.6,2.3.3,2.8s-.1.2-.3.2-.5.1-1.2-1.1a20.7,20.7,0,0,1-1.4-2.7c-.6-1.3-1.3-3.1-2.1-5.3l-.3-.6-1.2-3c-.6-1.3-1.5-2.8-2-4.1A5.2,5.2,0,0,1,350.9,382Z" transform="translate(-21.5 -16.6)"/>
      </g>
    </g>
    <g>
      <g>
        <path class="cls-1" d="M326.2,329.3c-.9-2.1-.2-2.5,0-2.6s4.4,4.9,5.7,7.3l.7,1.3a16.9,16.9,0,0,0,1.9,2.8c2.1,3.1,5.3,7.8,6.3,10.6a2.6,2.6,0,0,1,.2,1.3c-.2,0-.7-.2-2-1.6a70.6,70.6,0,0,1-6.3-8.8,4.2,4.2,0,0,0-.7-1.1l-.8-1.2c-1.7-2.3-4.1-5.6-5-8Z" transform="translate(-21.5 -16.6)"/>
        <path class="cls-1" d="M337.7,344.1c-.8-2-.6-6.4-.6-8.8a10.1,10.1,0,0,0,0-1.8c-.3-4.1-.8-9.3.4-9.6s.9-.1,1.2.7a22.2,22.2,0,0,1,.5,5.7v3.3a57.3,57.3,0,0,1,0,7.2c-.3,3.8-1,4-1,4S337.8,344.6,337.7,344.1Z" transform="translate(-21.5 -16.6)"/>
        <path class="cls-1" d="M317.6,338.5a1.9,1.9,0,0,1-.1-.8c.8-.1,4.3.6,12.9,4.5l1.8.6c1.5.4,4.7,1.3,5.1,2.3a.8.8,0,0,1-.1.4c-.1.2-1,1.1-9.5-2.2l-.6-.3-2.9-1C321.4,341.1,318.2,340.1,317.6,338.5Z" transform="translate(-21.5 -16.6)"/>
      </g>
      <g>
        <path class="cls-1" d="M357.8,298.9c.5-2.2,1.3-2.1,1.5-2.1s.9,6.4.7,9.1v1.4c0,.6,0,1.8.1,3.5.2,3.8.4,9.5-.2,12.4a2.9,2.9,0,0,1-.5,1.4c-.3-.2-1.5-1.9-1.6-13.5v-2.8c-.1-2.9-.4-6.9.2-9.4Z" transform="translate(-21.5 -16.6)"/>
        <path class="cls-1" d="M359.5,317.6c.5-2.1,2.9-5.8,4.2-7.8a6.9,6.9,0,0,0,1-1.6c2-3.6,4.4-8.1,5.6-7.8s.8.4.6,1.2a19.3,19.3,0,0,1-2.7,5l-1.2,2-.5.8c-.9,1.6-2.4,4.1-3.9,6.2s-3,2.9-3,2.9S359.4,318.1,359.5,317.6Z" transform="translate(-21.5 -16.6)"/>
        <path class="cls-1" d="M345.5,302.2l.4-.8c.8.3,3.3,2.8,8.5,10.8l1.2,1.4c1,1.2,3.3,3.6,3.1,4.7s-.1.2-.3.3-1.5.5-6.9-6.9l-.4-.5-1.9-2.4C347.3,306.5,345.1,303.8,345.5,302.2Z" transform="translate(-21.5 -16.6)"/>
      </g>
    </g>
    <g>
      <g>
        <path class="cls-1" d="M321.9,246.3c-.4-2.5.4-2.7.6-2.8s3.3,6.3,4.2,9l.5,1.5c.2.5.7,1.7,1.5,3.3s1.9,4,2.9,6.1a41.8,41.8,0,0,1,2.3,5.6,3,3,0,0,1,.2,1.4c-.2,0-.8-.2-1.9-1.8a51.2,51.2,0,0,1-5.5-10l-.5-1.2-.7-1.5c-.7-1.4-1.5-3-2.2-4.7a26.3,26.3,0,0,1-1.4-4.9Z" transform="translate(-21.5 -16.6)"/>
        <path class="cls-1" d="M331.2,264c-.6-2.2,0-6.8.5-9.3a12.5,12.5,0,0,1,.3-1.9,43.1,43.1,0,0,1,.7-6.5c.3-1.9.8-3.3,1.4-3.4s.9.2,1,1a23.6,23.6,0,0,1-.6,6,16,16,0,0,0-.3,2.3l-.2,1c-.1,1.9-.5,4.9-.9,7.5a21.1,21.1,0,0,1-1,3.5,1.6,1.6,0,0,1-.5.6C331.5,264.8,331.3,264.5,331.2,264Z" transform="translate(-21.5 -16.6)"/>
        <path class="cls-1" d="M311.9,255.3a1.4,1.4,0,0,1,0-.9c.4-.1,1.5.2,3.4,1.3s4.8,2.8,8.9,5.5l1.6.8c1.5.6,4.6,2,4.9,3a.8.8,0,0,1-.1.4c0,.1-.3.4-1.6.1a27.6,27.6,0,0,1-7.7-3.5l-.5-.3-2.8-1.5C315.3,258.9,312.2,257.2,311.9,255.3Z" transform="translate(-21.5 -16.6)"/>
      </g>
      <g>
        <path class="cls-1" d="M360.5,225.3c1.2-1.7,1.9-1.4,2.1-1.3s.4,1.7-.2,3.3-1.4,3.5-1.9,4.6a6.1,6.1,0,0,0-.5,1.2c-.2.5-.5,1.6-.9,3-.9,3.3-1.8,8.4-3,10.9-.4.7-.6,1-.7,1s-.5-.6-.4-2.3.4-4.8,1.9-9.9c.1-.6.3-.9.3-1.1l.3-1.4c.3-1.3.8-2.8,1.2-4.2a14.9,14.9,0,0,1,1.8-3.8Z" transform="translate(-21.5 -16.6)"/>
        <path class="cls-1" d="M357,241.9c1-1.7,4.2-4.4,6-5.6l1.4-1.1a44.1,44.1,0,0,1,4.3-3.5c1.4-.9,2.6-1.5,3.1-1.1s.6.5.2,1.1-2.3,2-3.9,3.2l-1.7,1.2-.7.6-2.4,1.9a21.5,21.5,0,0,1-2.8,2.3,12.8,12.8,0,0,1-2.9,1.7l-.7.2C356.7,242.7,356.8,242.3,357,241.9Z" transform="translate(-21.5 -16.6)"/>
        <path class="cls-1" d="M347.8,224.1l.6-.6c.4.3.9,1.2,1.7,3.2s.8,2.2,1.3,3.7,1.2,3.3,1.9,5.5l.8,1.5c.8,1.4,2.4,4.1,1.9,5l-.3.2c-.1,0-.5,0-1.3-.9a17.5,17.5,0,0,1-1.5-2.4,26.5,26.5,0,0,1-2.2-4.7l-.2-.5-1.2-2.8C348.2,228.6,346.9,225.5,347.8,224.1Z" transform="translate(-21.5 -16.6)"/>
      </g>
    </g>
    <g>
      <g>
        <path class="cls-1" d="M352.4,162.9c1-2.3,1.8-2.2,2-2.1s-.5,7.1-1.2,9.9l-.3,1.6a27.3,27.3,0,0,0-.5,3.7c-.1,2-.4,4.5-.6,6.9a31.1,31.1,0,0,1-.7,6.1,2.9,2.9,0,0,1-.5,1.4c-.2-.1-.6-.6-.8-2.5a42.6,42.6,0,0,1-.2-4.3,19,19,0,0,1,.1-3.3c.1-1.2.2-2.5.4-4.1l.2-1.4v-1.6l.2-2.6a25.1,25.1,0,0,1,.4-2.7,29.9,29.9,0,0,1,1.4-5Z" transform="translate(-21.5 -16.6)"/>
        <path class="cls-1" d="M351.2,183.2a12.8,12.8,0,0,1,2.2-4.1l2.9-3.8,1.3-1.6c2.6-3.6,5.9-8,7-7.4s.7.6.3,1.4a18.6,18.6,0,0,1-3.6,4.8l-1.5,1.8-.7.8a48.7,48.7,0,0,1-4.6,6.1,13.4,13.4,0,0,1-1.7,1.7,3.6,3.6,0,0,1-.9.9c-.5.4-.7.3-.7.3S351,183.7,351.2,183.2Z" transform="translate(-21.5 -16.6)"/>
        <path class="cls-1" d="M339,165.7a3.5,3.5,0,0,1,.5-.8c.4.2,1.1,1,2.2,2.9s2.7,5,4.8,9.4l1,1.6c.9,1.2,3,4,2.7,5.1s0,.2-.2.3-.5.2-1.5-.7-2.6-2.8-4.9-6.9l-.3-.6-1.6-2.7C340.1,170.7,338.3,167.7,339,165.7Z" transform="translate(-21.5 -16.6)"/>
      </g>
      <g>
        <path class="cls-1" d="M396.5,164.8c1.9-.9,2.3-.2,2.5,0s-.7,1.7-2.1,2.8l-2.1,1.7-1.9,1.4-1.1.7-2.3,2.2-4.2,4.1-2.2,2-1.8,1.5a2.8,2.8,0,0,1-1.2.6c-.1-.2-.1-.8.8-2.3l2.4-2.9c1.1-1.2,2.5-2.7,4.4-4.5s.8-.6.9-.8l1-.9c2-1.9,4.5-4.6,6.9-5.6Z" transform="translate(-21.5 -16.6)"/>
        <path class="cls-1" d="M384.7,177.5a13.1,13.1,0,0,1,3.8-1.2l4.2-.6,1.7-.2c3.9-.7,8.4-1.4,8.9-.3s.3.8-.4,1.2-3,.6-5.1.8l-2.1.2h-.9l-1.4.2-1.6.2-3.6.5h-3.4l-.7-.3Q384.1,177.8,384.7,177.5Z" transform="translate(-21.5 -16.6)"/>
        <path class="cls-1" d="M386.2,157.3h.7a2.8,2.8,0,0,1,.1,1.1,12.9,12.9,0,0,1-.3,2.4c-.3,2.1-1,5.2-2,9.6-.1.4-.1,1-.2,1.8s-.1,4.7-.9,5.2h-.4c-.1,0-.4-.2-.6-1.5s-.3-3.5.5-7.9v-.6c.2-.9.3-2,.5-3C384.1,161.5,384.6,158.1,386.2,157.3Z" transform="translate(-21.5 -16.6)"/>
      </g>
    </g>
    <g>
      <g>
        <path class="cls-1" d="M416,105.2c1.6-1.8,2.3-1.3,2.5-1.2s-2.6,6.3-4.2,8.6l-.8,1.3a18.3,18.3,0,0,0-1.7,3.1c-.9,1.8-2,4-3.1,6a39.6,39.6,0,0,1-3.1,5.1c-.6.8-1,1-1.1,1s-.2-.7.4-2.6a51.6,51.6,0,0,1,4.7-10.2l.6-1.2c.2-.4.5-.9.7-1.4a41.6,41.6,0,0,1,5.1-8.5Z" transform="translate(-21.5 -16.6)"/>
        <path class="cls-1" d="M408,122.9c1.4-1.7,5.4-3.8,7.6-5l1.7-.9c3.5-2.3,8-5.2,8.8-4.3s.5.8-.1,1.4a21.8,21.8,0,0,1-4.9,3.2l-2,1.1-.9.5c-1.6.9-4.1,2.5-6.5,3.7a13.8,13.8,0,0,1-3.4,1.2c-.6.1-.7,0-.7,0S407.7,123.3,408,122.9Z" transform="translate(-21.5 -16.6)"/>
        <path class="cls-1" d="M403.2,102.4l.7-.5c.6.6,1.5,4.2,2.1,13.8a10.1,10.1,0,0,0,.4,1.8c.3,1.6,1.1,4.8.4,5.7h-.3c-.2.1-1.7-.2-2.8-9.4v-.6c-.1-1-.3-2.1-.5-3.1C402.6,107.2,402,103.8,403.2,102.4Z" transform="translate(-21.5 -16.6)"/>
      </g>
      <g>
        <path class="cls-1" d="M457.5,120.2c2.2-.5,2.5.2,2.5.4s-1.1,1.6-2.8,2.4a49,49,0,0,1-5.1,2.2l-1.3.5-3.1,1.5c-3.2,1.8-8.1,4.4-10.9,5.1a2.5,2.5,0,0,1-1.3.2c0-.2.2-.8,1.7-1.9a57.5,57.5,0,0,1,9.3-5.3l1.1-.6,1.3-.7c2.6-1.3,6-3.3,8.6-3.8Z" transform="translate(-21.5 -16.6)"/>
        <path class="cls-1" d="M441.6,129.7c2-.5,6.3.1,8.6.4l1.9.3c4.1.2,9.1.4,9.3,1.7s0,.9-.8,1.1a23.6,23.6,0,0,1-5.6-.4l-2.2-.2h-1c-1.8-.2-4.6-.4-7.1-.9s-3.9-1.5-3.9-1.5S441.1,129.8,441.6,129.7Z" transform="translate(-21.5 -16.6)"/>
        <path class="cls-1" d="M449.3,110.4h.8c0,.8-1.2,4.2-6,12.2l-.8,1.7c-.5,1.5-1.7,4.5-2.7,4.8h-.4c-.2-.1-1.1-1.1,3.1-9.2l.2-.5c.5-.9.9-1.9,1.4-2.8C446.1,113.9,447.6,110.8,449.3,110.4Z" transform="translate(-21.5 -16.6)"/>
      </g>
    </g>
    <g>
      <g>
        <path class="cls-1" d="M485.1,63.8c1.6-1.6,2.2-1.1,2.4-1s-2.6,6-4.3,8.2l-.9,1.1-1.8,3c-1.9,3.2-4.9,8.1-7,10.2a6.4,6.4,0,0,1-1.1.9c-.2-.4-.2-2.4,6.1-12.1l.6-1.1.8-1.3a45,45,0,0,1,5.2-7.9Z" transform="translate(-21.5 -16.6)"/>
        <path class="cls-1" d="M476.4,80.5c1.5-1.5,5.6-3.3,7.8-4.2l1.7-.8c3.6-2,8-4.6,8.8-3.7s.5.8-.1,1.4-3,1.9-5,2.9l-2.1.9-.8.5c-1.6.8-4.2,2.1-6.6,3s-4.2.8-4.2.8A1.5,1.5,0,0,1,476.4,80.5Z" transform="translate(-21.5 -16.6)"/>
        <path class="cls-1" d="M473.1,59.9l.7-.4c.5.6,1.3,4.1,1.3,13.6,0,.4.1,1.1.2,1.9s.7,4.8,0,5.6h-.4c-.2,0-1.5-.4-2-9.6v-.6l-.3-3.1C472.3,64.5,471.9,61.1,473.1,59.9Z" transform="translate(-21.5 -16.6)"/>
      </g>
      <g>
        <path class="cls-1" d="M526.4,79c2.2-.6,2.5.1,2.6.3s-5.6,4-8.2,5.1l-1.4.6-3.2,1.6-6,3.1a26.6,26.6,0,0,1-5.6,2.1,2.9,2.9,0,0,1-1.4.2c.1-.3.3-.8,1.9-1.9l3.5-2.1,6.4-3.3,1.2-.6,1.3-.7c2.6-1.5,6.2-3.6,8.9-4.4Z" transform="translate(-21.5 -16.6)"/>
        <path class="cls-1" d="M509.7,89.2c2.2-.5,6.6,0,9.1.3l1.9.2c4.3,0,9.7-.1,9.9,1.2s-.1.9-1,1.1a18.7,18.7,0,0,1-5.9.1l-2.4-.2h-1a56.7,56.7,0,0,1-7.4-.7c-3.8-.6-4-1.4-4-1.4S509.2,89.3,509.7,89.2Z" transform="translate(-21.5 -16.6)"/>
        <path class="cls-1" d="M517.7,69.6h.8c.1.4-.2,1.5-1,3.5a66.3,66.3,0,0,1-5,9c-.2.4-.4,1-.8,1.7s-1.9,4.6-3,4.9h-.3c-.3-.1-1.1-1.1,3.3-9.3l.3-.5c.5-.9,1-1.9,1.4-2.8C514.7,73.2,516,70.1,517.7,69.6Z" transform="translate(-21.5 -16.6)"/>
      </g>
    </g>
    <g>
      <g>
        <path class="cls-1" d="M545.9,19.9c1-1.8,1.7-1.5,1.9-1.4s.5,1.9,0,3.7a11.7,11.7,0,0,1-1,2.6c-.3.9-.7,1.7-.9,2.3l-.6,1.2c-.2.6-.5,1.7-1,3.2s-1.4,3.9-2.2,5.9a35.6,35.6,0,0,1-2.6,5.2c-.6.7-.9.9-1,.9s-.3-.7.2-2.5a71.8,71.8,0,0,1,3.4-10.1,3.1,3.1,0,0,0,.4-1.2l.4-1.3c.4-1.4.9-3,1.4-4.5a41.5,41.5,0,0,1,1.6-4Z" transform="translate(-21.5 -16.6)"/>
        <path class="cls-1" d="M541.4,37.4a17.9,17.9,0,0,1,3.1-2.8L548,32l1.5-1,4.5-4c1.4-1.1,2.5-1.8,3-1.4s.6.6.2,1.3a16.5,16.5,0,0,1-4,3.9l-1.8,1.3-.7.6-2.6,2a22.7,22.7,0,0,1-3.2,2.2c-3.2,1.8-3.8,1.4-3.8,1.4S541.1,37.8,541.4,37.4Z" transform="translate(-21.5 -16.6)"/>
        <path class="cls-1" d="M533.9,18.1l.5-.5c.4.3.9,1.2,1.7,3.2a67.6,67.6,0,0,1,2.6,9.7,12,12,0,0,0,.6,1.7c.5,1.5,1.6,4.6,1,5.5H540c-.2.1-1.5-.2-3.7-9l-.2-.6a19,19,0,0,0-.9-2.9C534.3,22.6,533.2,19.4,533.9,18.1Z" transform="translate(-21.5 -16.6)"/>
      </g>
      <g>
        <path class="cls-1" d="M589.6,22.8c2-1.5,2.5-1,2.7-.8s-4.3,6-6.5,8.1l-1.2,1-2.8,2.7c-1.4,1.5-3.3,3.3-5.1,5a39.1,39.1,0,0,1-5.2,3.8l-1.4.5c0-.2.2-.8,1.5-2.4s1.7-1.8,3.1-3.1,3.1-3.1,5.4-5.2l1-1,1.2-1.2c2.1-2.3,4.9-5.7,7.3-7.4Z" transform="translate(-21.5 -16.6)"/>
        <path class="cls-1" d="M576,38.5c2-1.2,6.6-2.1,9.2-2.7l2-.4,3.3-1.2,3.2-1.2c1.9-.6,3.4-.9,3.7-.3s.2.9-.6,1.5-3.7,1.7-6,2.4l-2.4.7-1.1.3c-1.9.5-5,1.4-7.6,1.8a11.7,11.7,0,0,1-3.7.1c-.6-.1-.7-.3-.7-.3S575.6,38.8,576,38.5Z" transform="translate(-21.5 -16.6)"/>
        <path class="cls-1" d="M578.3,16.9l.7-.3c.2.4.3,1.5.1,3.7A54.6,54.6,0,0,1,577,30.7a15.2,15.2,0,0,0-.3,1.9c-.3,1.6-.8,5.2-1.8,5.7s-.2.1-.4,0-.4-.2-.4-1.6a46,46,0,0,1,1.3-8.5l.2-.7a28.7,28.7,0,0,0,.5-3.1C576.5,21.3,576.8,17.9,578.3,16.9Z" transform="translate(-21.5 -16.6)"/>
      </g>
    </g>
  </g>
</svg>
