<svg xmlns="http://www.w3.org/2000/svg" width="620" height="92" viewBox="0 0 620 92">
  <defs>
    <style>
      .cls-1 {
        fill: #9fdde3;
      }

      .cls-2 {
        fill: none;
        stroke: #a4cc46;
        stroke-linecap: round;
        stroke-width: 1.23px;
      }

      .cls-3 {
        fill: #a4cc46;
      }

      .cls-4 {
        fill: #8eb622;
      }

      .cls-5 {
        fill: #106434;
      }

      .cls-5, .cls-6, .cls-7, .cls-8, .cls-9 {
        fill-rule: evenodd;
      }

      .cls-6 {
        fill: #d3b169;
      }

      .cls-7 {
        fill: #649333;
      }

      .cls-8 {
        fill: #040000;
      }

      .cls-9 {
        fill: #633419;
      }
    </style>
  </defs>
  <title>アセット 3</title>
  <g id="レイヤー_2" data-name="レイヤー 2">
    <g id="レイヤー_1-2" data-name="レイヤー 1">
      <g>
        <path class="cls-1" d="M264.2,11.7h7.6V68.4h-7.6V64.9a14.4,14.4,0,0,1-21.2-.5c-3-3.3-4.4-7.5-4.4-12.5A17.3,17.3,0,0,1,243,39.7a14,14,0,0,1,21.2-.3ZM246.3,51.9a11.5,11.5,0,0,0,2.5,7.7,8.4,8.4,0,0,0,6.5,2.9,8.7,8.7,0,0,0,6.8-2.8,11.5,11.5,0,0,0,2.6-7.6,11.3,11.3,0,0,0-2.6-7.6,8.2,8.2,0,0,0-6.7-2.9,8.1,8.1,0,0,0-6.5,2.9A11.1,11.1,0,0,0,246.3,51.9Z"/>
        <path class="cls-1" d="M311.1,53.8H287.7a10.1,10.1,0,0,0,2.6,6.4,7.9,7.9,0,0,0,6,2.3,7.6,7.6,0,0,0,4.6-1.3,19.2,19.2,0,0,0,4.2-5l6.3,3.6a25.1,25.1,0,0,1-3.1,4.3,19.3,19.3,0,0,1-3.5,3,18.6,18.6,0,0,1-4.1,1.7,22.6,22.6,0,0,1-4.7.5,15.7,15.7,0,0,1-11.8-4.7c-2.9-3.2-4.4-7.3-4.4-12.6s1.4-9.3,4.3-12.5a14.7,14.7,0,0,1,11.5-4.8A14.9,14.9,0,0,1,307,39.3c2.8,3.1,4.2,7.3,4.2,12.7Zm-7.7-6.2c-1.1-4-3.6-6-7.6-6a7.1,7.1,0,0,0-2.6.4,7.8,7.8,0,0,0-2.2,1.2,5.2,5.2,0,0,0-1.7,1.9,7.1,7.1,0,0,0-1.1,2.5Z"/>
        <path class="cls-1" d="M338.4,41.2l-6.3,3.4c-.9-2.1-2.2-3.1-3.6-3.1a2.9,2.9,0,0,0-1.8.7A2.4,2.4,0,0,0,326,44c0,1.2,1.4,2.5,4.3,3.7s6.7,3.3,8.1,4.8a7.9,7.9,0,0,1,2.1,5.8,10.6,10.6,0,0,1-3.5,8,11.8,11.8,0,0,1-8.2,3c-5.5,0-9.3-2.7-11.6-8l6.4-3a17.4,17.4,0,0,0,2.1,3,4.8,4.8,0,0,0,3.3,1.2c2.5,0,3.8-1.1,3.8-3.4s-1-2.6-3-3.8l-2.3-1.1-2.3-1.1a15.6,15.6,0,0,1-4.6-3.2,8.4,8.4,0,0,1-1.7-5.3,9.6,9.6,0,0,1,2.9-7.1,10.5,10.5,0,0,1,7.3-2.8C333.2,34.7,336.4,36.9,338.4,41.2Z"/>
        <path class="cls-1" d="M346.1,22.1a4.7,4.7,0,0,1,1.5-3.5,4.8,4.8,0,0,1,3.4-1.4,4.8,4.8,0,0,1,3.5,1.4,4.8,4.8,0,0,1,0,7,4.8,4.8,0,0,1-3.4,1.4,5,5,0,0,1-5-4.9Zm8.7,13.6V68.4h-7.5V35.7Z"/>
        <path class="cls-1" d="M396,67.6c0,1.5,0,2.9-.1,4.1s-.3,2.2-.4,3.1a14.5,14.5,0,0,1-3.2,6.3c-2.9,3.4-7,5.1-12.2,5.1a16.9,16.9,0,0,1-10.8-3.5c-2.9-2.4-4.5-5.8-5-10.1h7.6a9.8,9.8,0,0,0,1.4,3.8,8.3,8.3,0,0,0,6.9,3c5.5,0,8.3-3.4,8.3-10.1V64.7a14.1,14.1,0,0,1-10.4,4.6,13.9,13.9,0,0,1-10.9-4.8,17.9,17.9,0,0,1-4.3-12.3,18.4,18.4,0,0,1,4-12.1,14.2,14.2,0,0,1,21.6-.8V35.7H396Zm-7.2-15.5a11.4,11.4,0,0,0-2.6-7.7,8.5,8.5,0,0,0-6.6-2.9,8.4,8.4,0,0,0-6.8,3.2,11.6,11.6,0,0,0-2.2,7.4,11.3,11.3,0,0,0,2.2,7.3,8.2,8.2,0,0,0,6.8,3.1,8.4,8.4,0,0,0,6.9-3.1A11.6,11.6,0,0,0,388.8,52.1Z"/>
        <path class="cls-1" d="M405.6,35.7h7.6v3a12.4,12.4,0,0,1,8.9-4c3.8,0,6.8,1.2,8.9,3.6s2.7,5.4,2.7,10V68.4h-7.6V50.1c0-3.2-.4-5.5-1.3-6.7s-2.5-1.9-4.8-1.9-4.3.9-5.3,2.5-1.5,4.5-1.5,8.6V68.4h-7.6Z"/>
        <path class="cls-1" d="M477,37.1v10a19.4,19.4,0,0,0-4.7-4.3,8.9,8.9,0,0,0-4.7-1.2,9.4,9.4,0,0,0-7.1,3,10,10,0,0,0-2.8,7.4,10.9,10.9,0,0,0,2.7,7.6,9,9,0,0,0,7,2.9,9.5,9.5,0,0,0,4.8-1.1,19.1,19.1,0,0,0,4.8-4.5v10a20,20,0,0,1-9.2,2.4,17.4,17.4,0,0,1-12.7-4.9A16.4,16.4,0,0,1,450,52.1a16.6,16.6,0,0,1,5.1-12.3,17.5,17.5,0,0,1,12.7-5.1A18.6,18.6,0,0,1,477,37.1Z"/>
        <path class="cls-1" d="M491.8,35.7V54.4c0,5.4,2.2,8.1,6.4,8.1s6.5-2.7,6.5-8.1V35.7h7.5V54.6a19.9,19.9,0,0,1-1,6.8A11.7,11.7,0,0,1,508,66a16.1,16.1,0,0,1-19.5,0,13.1,13.1,0,0,1-3.3-4.6,19.9,19.9,0,0,1-.9-6.8V35.7Z"/>
        <path class="cls-1" d="M529.3,11.7V39.4a14,14,0,0,1,10.3-4.7,14.1,14.1,0,0,1,11,5A17.7,17.7,0,0,1,555,51.9a18.3,18.3,0,0,1-4.4,12.5,14.5,14.5,0,0,1-21.3.5v3.5h-7.6V11.7Zm18,40.5a11.3,11.3,0,0,0-2.6-7.6,8.2,8.2,0,0,0-6.5-3,8.4,8.4,0,0,0-6.7,2.9,10.4,10.4,0,0,0-2.6,7.5,10.9,10.9,0,0,0,2.5,7.6,8.4,8.4,0,0,0,6.7,2.9,8,8,0,0,0,6.5-2.9A10.4,10.4,0,0,0,547.3,52.2Z"/>
        <path class="cls-1" d="M561.8,22.1a4.7,4.7,0,0,1,1.5-3.5,4.8,4.8,0,0,1,3.4-1.4,4.8,4.8,0,0,1,3.5,1.4,4.8,4.8,0,0,1,0,7,4.8,4.8,0,0,1-3.4,1.4,5,5,0,0,1-5-4.9Zm8.7,13.6V68.4H563V35.7Z"/>
        <path class="cls-1" d="M587.9,42.7V68.4h-7.6V42.7h-3.2v-7h3.2v-12h7.6v12h5.9v7Z"/>
        <path class="cls-1" d="M617.9,41.2l-6.2,3.4c-1-2.1-2.3-3.1-3.7-3.1a2.9,2.9,0,0,0-1.8.7,2.4,2.4,0,0,0-.7,1.8c0,1.2,1.4,2.5,4.3,3.7s6.7,3.3,8.1,4.8a7.9,7.9,0,0,1,2.1,5.8,10.6,10.6,0,0,1-3.5,8,11.8,11.8,0,0,1-8.2,3c-5.5,0-9.3-2.7-11.6-8l6.4-3a17.4,17.4,0,0,0,2.1,3,4.8,4.8,0,0,0,3.3,1.2c2.5,0,3.8-1.1,3.8-3.4s-1-2.6-3-3.8l-2.2-1.1-2.4-1.1a15.6,15.6,0,0,1-4.6-3.2,8.4,8.4,0,0,1-1.7-5.3,9.6,9.6,0,0,1,2.9-7.1,10.5,10.5,0,0,1,7.3-2.8C612.8,34.7,615.9,36.9,617.9,41.2Z"/>
        <g>
          <path class="cls-2" d="M147.7,42.2s-20,4.3-30.4-7.8-7-26.2-7-26.2"/>
          <path class="cls-3" d="M171.3,33.5s13.4-8.4,15.7-21.3C188.7,2.7,180.3-.7,175.9.1a12.6,12.6,0,0,0-9.5,7.7S163.6,1.4,154.6,3c-7.1,1.2-9.5,10.1-4,16.8C161,32.6,171.3,33.5,171.3,33.5Z"/>
          <path class="cls-3" d="M177.1,38.2s9,12.4,22.8,14.5c10.3,1.6,13.9-6.2,13.1-10.3-1.4-6.8-8.3-8.8-8.3-8.8s6.9-2.6,5.2-10.9c-1.3-6.6-10.9-8.9-18.1-3.8C178.1,28.6,177.1,38.2,177.1,38.2Z"/>
          <path class="cls-4" d="M171.9,42.8S158.5,51.2,156.2,64c-1.7,9.6,6.7,13,11.1,12.2a12.6,12.6,0,0,0,9.5-7.7s2.8,6.4,11.7,4.8c7.1-1.2,9.6-10.1,4.1-16.8C182.2,43.7,171.9,42.8,171.9,42.8Z"/>
          <path class="cls-3" d="M165.6,38.7s-9-12.5-22.9-14.6c-10.3-1.6-13.9,6.2-13,10.3,1.4,6.8,8.3,8.8,8.3,8.8s-7,2.6-5.3,10.9c1.4,6.6,11,8.9,18.2,3.8C164.6,48.3,165.6,38.7,165.6,38.7Z"/>
        </g>
        <g>
          <path class="cls-5" d="M96.5,69.4s-23.7,2.7-36-14.2c-9.6-13.3-7.6-18.4-16.4-26.9s-17.6-11-17.6-11,27.9-.8,42,10.9S96.5,69.4,96.5,69.4Z"/>
          <path class="cls-6" d="M106,30.8c-1,.3,20.8,30-.1,48.5-27.5,24.6-63.2,5.9-63.2,5.9L28.6,81.9l8.9-12.7s.9,8.3,13,9C79.4,80,77.7,52.5,77.7,52.5s-15.4-33,5.6-39.3,22.6,6.6,21.6,6.9l10.7-2.9S107,30.5,106,30.8Z"/>
          <path class="cls-7" d="M96,49.7c9.4,2.1,9.9,13.5,4.6,21.3-2.8,4.3-28.7,16.1-46.8-3.2C30.8,43.1,0,43.5,0,43.5s46.1-14.1,65.8-.6C75.2,49.4,83.3,46.7,96,49.7Z"/>
          <path class="cls-8" d="M91.9,24.6a2.2,2.2,0,0,1,2-2.7A2.5,2.5,0,0,1,96.7,24a2.3,2.3,0,0,1-2,2.8A2.6,2.6,0,0,1,91.9,24.6Z"/>
          <polygon class="cls-9" points="103.3 16.5 119.1 16.7 105.8 31.4 103.3 16.5"/>
        </g>
      </g>
    </g>
  </g>
</svg>
