<svg id="logo" xmlns="http://www.w3.org/2000/svg" width="383" height="383" viewBox="0 0 383 383">
  <defs>
    <style>
      .cls-1 {
        fill: #9fdde3;
      }

      .cls-2 {
        fill: #fff;
      }

      .cls-3 {
        fill: none;
        stroke: #a4cc46;
        stroke-linecap: round;
      }

      .cls-4 {
        fill: #a4cc46;
      }

      .cls-5 {
        fill: #8eb622;
      }

      .cls-6 {
        fill: #106434;
      }

      .cls-10, .cls-6, .cls-7, .cls-8, .cls-9 {
        fill-rule: evenodd;
      }

      .cls-7 {
        fill: #d3b169;
      }

      .cls-8 {
        fill: #649333;
      }

      .cls-9 {
        fill: #040000;
      }

      .cls-10 {
        fill: #633419;
      }
    </style>
  </defs>
  <title>logo</title>
  <circle id="circle" class="cls-1" cx="191.5" cy="191.5" r="191.5"/>
  <g id="cubits">
    <path class="cls-2" d="M154.4,185.1v11.7a20.5,20.5,0,0,0-5.4-5.1,11,11,0,0,0-5.5-1.4,11.1,11.1,0,0,0-8.3,3.5,12.1,12.1,0,0,0-3.3,8.7,12.5,12.5,0,0,0,3.2,8.8,10.9,10.9,0,0,0,8.2,3.5,11.3,11.3,0,0,0,5.6-1.4,21.1,21.1,0,0,0,5.5-5.2v11.7a23.6,23.6,0,0,1-10.7,2.7,20.6,20.6,0,0,1-14.8-5.7,18.9,18.9,0,0,1-6-14.3,19.7,19.7,0,0,1,6.1-14.4,20.3,20.3,0,0,1,14.8-5.8A22,22,0,0,1,154.4,185.1Z"/>
    <path class="cls-2" d="M171.7,183.4v21.9c0,6.3,2.5,9.5,7.5,9.5s7.5-3.2,7.5-9.5V183.4h8.8v22.1a23.4,23.4,0,0,1-1.2,7.9,12.8,12.8,0,0,1-3.7,5.4,17.2,17.2,0,0,1-11.4,3.8,17,17,0,0,1-11.3-3.8,14.3,14.3,0,0,1-3.9-5.4,22.5,22.5,0,0,1-1.1-7.9V183.4Z"/>
    <path class="cls-2" d="M215.4,155.5v32.4a16.1,16.1,0,0,1,12-5.5,16.5,16.5,0,0,1,12.8,5.7,20.7,20.7,0,0,1,5.1,14.3c0,5.8-1.7,10.7-5.1,14.5a16.9,16.9,0,0,1-13,5.7,16.5,16.5,0,0,1-11.8-5.1v4h-8.8v-66Zm20.9,47.3a13.7,13.7,0,0,0-2.9-9,9.9,9.9,0,0,0-7.6-3.5,10.3,10.3,0,0,0-7.9,3.4,14.6,14.6,0,0,0,0,17.7,10.4,10.4,0,0,0,15.4,0A12.7,12.7,0,0,0,236.3,202.8Z"/>
    <path class="cls-2" d="M253.3,167.6a5.4,5.4,0,0,1,1.7-4,5.6,5.6,0,0,1,4-1.7,5.7,5.7,0,0,1,4.1,1.7,5.4,5.4,0,0,1,1.7,4,5.7,5.7,0,0,1-1.7,4.1,5.4,5.4,0,0,1-4,1.7,5.8,5.8,0,0,1-5.8-5.8Zm10.1,15.8v38.1h-8.8V183.4Z"/>
    <path class="cls-2" d="M283.7,191.6v29.9h-8.8V191.6h-3.8v-8.2h3.8V169.5h8.8v13.9h6.8v8.2Z"/>
    <path class="cls-2" d="M318.6,189.9l-7.2,3.9c-1.2-2.3-2.6-3.5-4.3-3.5a3.2,3.2,0,0,0-2.1.8,3,3,0,0,0-.8,2.1c0,1.4,1.7,2.9,5.1,4.3s7.8,3.9,9.4,5.6a9.4,9.4,0,0,1,2.4,6.8,11.7,11.7,0,0,1-4.1,9.2,13.5,13.5,0,0,1-9.5,3.5c-6.4,0-10.9-3.1-13.6-9.3l7.5-3.5a23.5,23.5,0,0,0,2.4,3.5,5.6,5.6,0,0,0,3.9,1.5c2.9,0,4.4-1.4,4.4-4.1s-1.1-3-3.4-4.4L306,205l-2.7-1.3a17.9,17.9,0,0,1-5.4-3.7,9.6,9.6,0,0,1-2-6.2,11.2,11.2,0,0,1,3.4-8.2,12.3,12.3,0,0,1,8.5-3.2C312.6,182.4,316.3,184.9,318.6,189.9Z"/>
  </g>
  <g id="bird">
    <g>
      <path class="cls-3" d="M224,304.2s-16.3,3.5-24.7-6.4-5.6-21.2-5.6-21.2"/>
      <path class="cls-4" d="M243.1,297.1s10.9-6.8,12.7-17.2c1.4-7.8-5.4-10.5-9-9.9a10.4,10.4,0,0,0-7.7,6.3s-2.2-5.3-9.5-4c-5.8,1-7.7,8.3-3.3,13.7C234.7,296.3,243.1,297.1,243.1,297.1Z"/>
      <path class="cls-4" d="M247.8,300.9s7.3,10.1,18.5,11.8c8.4,1.3,11.3-5.1,10.6-8.4-1.1-5.5-6.7-7.1-6.7-7.1s5.6-2.1,4.2-8.9c-1.1-5.3-8.8-7.2-14.7-3C248.6,293.1,247.8,300.9,247.8,300.9Z"/>
      <path class="cls-5" d="M243.6,304.6s-10.9,6.8-12.8,17.3c-1.3,7.7,5.5,10.4,9.1,9.8a10.1,10.1,0,0,0,7.6-6.3s2.3,5.3,9.6,4c5.7-1,7.7-8.3,3.3-13.7C252,305.4,243.6,304.6,243.6,304.6Z"/>
      <path class="cls-4" d="M238.5,301.3s-7.3-10.1-18.6-11.9c-8.3-1.2-11.2,5.1-10.6,8.4,1.2,5.5,6.8,7.2,6.8,7.2a7.4,7.4,0,0,0-4.3,8.8c1.1,5.4,8.9,7.2,14.8,3.1C237.7,309.1,238.5,301.3,238.5,301.3Z"/>
    </g>
    <g>
      <path class="cls-6" d="M182.4,326.2s-19.2,2.2-29.2-11.5c-7.8-10.8-6.1-14.9-13.3-21.8s-14.2-9-14.2-9,22.6-.6,34,8.9S182.4,326.2,182.4,326.2Z"/>
      <path class="cls-7" d="M190.2,294.9c-.9.2,16.8,24.3-.1,39.3-22.4,20-51.3,4.9-51.3,4.9l-11.4-2.7,7.2-10.3s.7,6.7,10.5,7.3c23.5,1.4,22.1-20.9,22.1-20.9s-12.5-26.8,4.5-31.9,18.4,5.4,17.6,5.6l8.6-2.4S191,294.7,190.2,294.9Z"/>
      <path class="cls-8" d="M182,310.2c7.7,1.8,8.1,11,3.8,17.3-2.3,3.5-23.3,13.1-38-2.6-18.7-20-43.6-19.7-43.6-19.7s37.4-11.4,53.3-.4C165.1,310,171.7,307.8,182,310.2Z"/>
      <path class="cls-9" d="M178.7,289.9a1.8,1.8,0,0,1,1.6-2.2,2,2,0,0,1,2.3,1.7,1.8,1.8,0,0,1-1.6,2.2A2,2,0,0,1,178.7,289.9Z"/>
      <polygon class="cls-10" points="188 283.3 200.8 283.5 190 295.4 188 283.3"/>
    </g>
  </g>
  <g id="design">
    <path class="cls-2" d="M87.7,81.5h6.4v48.2H87.7v-2.9a12,12,0,0,1-8.6,3.7,12.2,12.2,0,0,1-9.5-4.2,15.5,15.5,0,0,1-3.8-10.6,15.1,15.1,0,0,1,3.8-10.4,12,12,0,0,1,9.3-4.2,11.8,11.8,0,0,1,8.8,4ZM72.4,115.7a9.3,9.3,0,0,0,2.2,6.5,6.9,6.9,0,0,0,5.5,2.6,7.6,7.6,0,0,0,5.8-2.5,10.6,10.6,0,0,0,0-12.9,7.2,7.2,0,0,0-5.7-2.5,7,7,0,0,0-5.6,2.5A9.1,9.1,0,0,0,72.4,115.7Z"/>
    <path class="cls-2" d="M127.6,117.3h-20a8.4,8.4,0,0,0,2.3,5.5,6.9,6.9,0,0,0,5,2,6.5,6.5,0,0,0,4-1.2,16.2,16.2,0,0,0,3.5-4.2l5.4,3a21.9,21.9,0,0,1-2.6,3.7,22.1,22.1,0,0,1-3,2.5,10.7,10.7,0,0,1-3.5,1.4,16.8,16.8,0,0,1-4,.5c-4.2,0-7.5-1.3-10-4s-3.8-6.2-3.8-10.7a15.3,15.3,0,0,1,3.7-10.7,14,14,0,0,1,19.5-.1c2.3,2.6,3.5,6.2,3.5,10.8ZM121,112c-.9-3.4-3.1-5.1-6.5-5.1a5.4,5.4,0,0,0-2.2.4,5,5,0,0,0-1.9,1,7.3,7.3,0,0,0-1.4,1.6,6.7,6.7,0,0,0-.9,2.1Z"/>
    <path class="cls-2" d="M150.8,106.6l-5.4,2.8c-.8-1.6-1.8-2.5-3.1-2.5a2.1,2.1,0,0,0-2.1,2.1c0,1.1,1.2,2.1,3.7,3.2a22.2,22.2,0,0,1,6.9,4,6.8,6.8,0,0,1,1.8,5,8.6,8.6,0,0,1-3,6.7,10.3,10.3,0,0,1-7,2.6c-4.6,0-7.9-2.3-9.9-6.8l5.5-2.6a14.2,14.2,0,0,0,1.7,2.6,4.1,4.1,0,0,0,2.8,1.1q3.3,0,3.3-3c0-1.2-.8-2.2-2.5-3.2l-2-1-1.9-.9a12.5,12.5,0,0,1-4-2.7,7.3,7.3,0,0,1-1.4-4.5,8.1,8.1,0,0,1,2.4-6,8.8,8.8,0,0,1,6.2-2.4C146.4,101.1,149,102.9,150.8,106.6Z"/>
    <path class="cls-2" d="M157.4,90.3a4.1,4.1,0,0,1,4.1-4.1,4.1,4.1,0,0,1,3,1.2,4,4,0,0,1,1.2,2.9,4.1,4.1,0,0,1-1.2,3,4,4,0,0,1-2.9,1.2,4.1,4.1,0,0,1-4.2-4.2Zm7.4,11.6v27.8h-6.5V101.9Z"/>
    <path class="cls-2" d="M199.8,129c0,1.4,0,2.5-.1,3.5a19.3,19.3,0,0,1-.4,2.7,11.5,11.5,0,0,1-2.7,5.4,13.1,13.1,0,0,1-10.3,4.3,13.8,13.8,0,0,1-9.2-3,12.4,12.4,0,0,1-4.3-8.6h6.5a6.3,6.3,0,0,0,1.2,3.2,7,7,0,0,0,5.8,2.6c4.7,0,7.1-2.9,7.1-8.6v-3.9a12.4,12.4,0,0,1-18.2-.2,15.5,15.5,0,0,1-3.6-10.4,16.1,16.1,0,0,1,3.4-10.4,11.7,11.7,0,0,1,9.6-4.5,11.5,11.5,0,0,1,8.8,3.9v-3.1h6.4Zm-6.2-13.1a9.6,9.6,0,0,0-2.1-6.5,7.2,7.2,0,0,0-5.7-2.5,6.8,6.8,0,0,0-5.7,2.7,10.8,10.8,0,0,0,0,12.5,6.8,6.8,0,0,0,5.7,2.7,7.2,7.2,0,0,0,5.9-2.7A9.6,9.6,0,0,0,193.6,115.9Z"/>
    <path class="cls-2" d="M207.9,101.9h6.5v2.6a10.1,10.1,0,0,1,7.6-3.4,9.3,9.3,0,0,1,7.5,3.1q2.4,2.5,2.4,8.4v17.1h-6.5V114.2c0-2.8-.4-4.6-1.1-5.7s-2.1-1.6-4.1-1.6a4.9,4.9,0,0,0-4.5,2.1c-.9,1.4-1.3,3.8-1.3,7.3v13.4h-6.5Z"/>
  </g>
</svg>
