<svg id="レイヤー_1" data-name="レイヤー 1" xmlns="http://www.w3.org/2000/svg" width="423.2" height="63" viewBox="0 0 423.2 63">
  <defs>
    <style>
      .cls-1 {
        fill: #fff;
      }

      .cls-2 {
        fill: none;
        stroke: #a4cc46;
        stroke-linecap: round;
        stroke-width: 0.84px;
      }

      .cls-3 {
        fill: #a4cc46;
      }

      .cls-4 {
        fill: #8eb622;
      }

      .cls-5 {
        fill: #106434;
      }

      .cls-5, .cls-6, .cls-7, .cls-8, .cls-9 {
        fill-rule: evenodd;
      }

      .cls-6 {
        fill: #d3b169;
      }

      .cls-7 {
        fill: #649333;
      }

      .cls-8 {
        fill: #040000;
      }

      .cls-9 {
        fill: #633419;
      }
    </style>
  </defs>
  <title>logo_blue</title>
  <g>
    <path class="cls-1" d="M179.6,6.6h5.2V45.4h-5.2V43.1a9.9,9.9,0,0,1-7,3,9.7,9.7,0,0,1-7.6-3.4,12.4,12.4,0,0,1-3-8.5,12,12,0,0,1,3-8.4,9.7,9.7,0,0,1,14.6-.2ZM167.3,34.2a7.9,7.9,0,0,0,1.7,5.2,5.7,5.7,0,0,0,4.5,2.1,6,6,0,0,0,4.6-2,7.7,7.7,0,0,0,1.8-5.2,7.7,7.7,0,0,0-1.8-5.2,6,6,0,0,0-4.6-2,5.7,5.7,0,0,0-4.4,2A7.6,7.6,0,0,0,167.3,34.2Z"/>
    <path class="cls-1" d="M211.7,35.5H195.6a7.7,7.7,0,0,0,1.8,4.4,5.8,5.8,0,0,0,4.1,1.6,4.7,4.7,0,0,0,3.2-1,11.6,11.6,0,0,0,2.8-3.4l4.4,2.5a24.3,24.3,0,0,1-2.1,2.9,16.4,16.4,0,0,1-2.5,2.1,8.1,8.1,0,0,1-2.7,1.1,11.5,11.5,0,0,1-3.3.4,10.6,10.6,0,0,1-8-3.2,12,12,0,0,1-3.1-8.6,12.2,12.2,0,0,1,3-8.6,10.1,10.1,0,0,1,7.8-3.3,10.4,10.4,0,0,1,7.9,3.2c1.9,2.1,2.8,4.9,2.8,8.6Zm-5.3-4.3a5,5,0,0,0-5.2-4.1,4.8,4.8,0,0,0-1.8.3,3.6,3.6,0,0,0-1.5.8,4.9,4.9,0,0,0-1.2,1.3,8.7,8.7,0,0,0-.7,1.7Z"/>
    <path class="cls-1" d="M230.4,26.9l-4.3,2.2c-.7-1.3-1.5-2-2.5-2a1.6,1.6,0,0,0-1.2.4,1.7,1.7,0,0,0-.6,1.2c0,.9,1,1.8,3,2.6a18.5,18.5,0,0,1,5.6,3.3,5.7,5.7,0,0,1,1.4,4,7,7,0,0,1-2.4,5.4,7.9,7.9,0,0,1-5.6,2.1c-3.8,0-6.4-1.9-8-5.5l4.4-2.1a17.8,17.8,0,0,0,1.4,2.1,3.3,3.3,0,0,0,2.3.9c1.7,0,2.6-.8,2.6-2.4s-.7-1.8-2-2.6l-1.6-.8-1.6-.7a10.8,10.8,0,0,1-3.1-2.2,5.6,5.6,0,0,1-1.2-3.6,6.6,6.6,0,0,1,2-4.9,7.4,7.4,0,0,1,5-1.9C226.8,22.4,229,23.9,230.4,26.9Z"/>
    <path class="cls-1" d="M235.7,13.7a2.9,2.9,0,0,1,1-2.3,2.9,2.9,0,0,1,2.3-1,3,3,0,0,1,2.4,1,3,3,0,0,1,1,2.4,2.9,2.9,0,0,1-1,2.3,3,3,0,0,1-2.4,1,2.9,2.9,0,0,1-2.3-1A3,3,0,0,1,235.7,13.7Zm5.9,9.3V45.4h-5.2V23Z"/>
    <path class="cls-1" d="M269.8,44.9a23.5,23.5,0,0,1-.1,2.8,6.6,6.6,0,0,1-.3,2.1,9.5,9.5,0,0,1-2.1,4.4,10.6,10.6,0,0,1-8.4,3.5,11.3,11.3,0,0,1-7.4-2.4,10.4,10.4,0,0,1-3.4-6.9h5.2a5.2,5.2,0,0,0,1,2.5A5.5,5.5,0,0,0,259,53q5.7,0,5.7-6.9V42.9a9.9,9.9,0,0,1-7.1,3.2,9.4,9.4,0,0,1-7.5-3.3,12.4,12.4,0,0,1-3-8.4,12.7,12.7,0,0,1,2.7-8.3,9.5,9.5,0,0,1,7.8-3.7,9.3,9.3,0,0,1,7.1,3.2V23h5.1Zm-4.9-10.6a7.3,7.3,0,0,0-1.8-5.2,6.1,6.1,0,0,0-9.2.2,7.8,7.8,0,0,0-1.5,5,8,8,0,0,0,1.5,5,6.1,6.1,0,0,0,9.4,0A8.1,8.1,0,0,0,264.9,34.3Z"/>
    <path class="cls-1" d="M276.4,23h5.2v2.1a8.4,8.4,0,0,1,6.1-2.7,7.6,7.6,0,0,1,6.1,2.5c1.2,1.4,1.8,3.7,1.8,6.8V45.4h-5.2V32.9q0-3.3-.9-4.5a3.6,3.6,0,0,0-3.2-1.3c-1.8,0-3,.5-3.7,1.7s-1,3-1,5.8V45.4h-5.2Z"/>
    <path class="cls-1" d="M325.2,24v6.9a12.1,12.1,0,0,0-3.1-3,6.7,6.7,0,0,0-3.3-.8,6.6,6.6,0,0,0-4.8,2,7.3,7.3,0,0,0-1.9,5.2,7.2,7.2,0,0,0,1.8,5.1,6.3,6.3,0,0,0,4.8,2.1,6.7,6.7,0,0,0,3.3-.8,14.9,14.9,0,0,0,3.2-3.1v6.8a13.5,13.5,0,0,1-6.3,1.7,11.7,11.7,0,0,1-8.6-3.4,10.8,10.8,0,0,1-3.5-8.4,11.1,11.1,0,0,1,3.5-8.4,12.2,12.2,0,0,1,8.7-3.5A13.3,13.3,0,0,1,325.2,24Z"/>
    <path class="cls-1" d="M335.4,23V35.9c0,3.7,1.5,5.6,4.4,5.6s4.4-1.9,4.4-5.6V23h5.2V36a13.3,13.3,0,0,1-.7,4.7,8.1,8.1,0,0,1-2.2,3.1,10.1,10.1,0,0,1-6.7,2.3,9.6,9.6,0,0,1-6.6-2.3,7.4,7.4,0,0,1-2.3-3.1,14.1,14.1,0,0,1-.6-4.7V23Z"/>
    <path class="cls-1" d="M361.1,6.6v19a9.7,9.7,0,0,1,7-3.2,10,10,0,0,1,7.6,3.4,12,12,0,0,1,3,8.4,11.9,11.9,0,0,1-3.1,8.5,9.8,9.8,0,0,1-14.5.4v2.3h-5.2V6.6Zm12.3,27.8a7.5,7.5,0,0,0-1.8-5.2,5.4,5.4,0,0,0-4.4-2.1,6,6,0,0,0-4.6,2,7.2,7.2,0,0,0-1.8,5.1,8,8,0,0,0,1.7,5.3,6,6,0,0,0,4.6,2,5.9,5.9,0,0,0,4.5-2A7.6,7.6,0,0,0,373.4,34.4Z"/>
    <path class="cls-1" d="M383.4,13.7a2.9,2.9,0,0,1,1-2.3,2.9,2.9,0,0,1,2.3-1,3,3,0,0,1,2.4,1,3,3,0,0,1,1,2.4,2.9,2.9,0,0,1-1,2.3,3,3,0,0,1-2.4,1,2.9,2.9,0,0,1-2.3-1A3,3,0,0,1,383.4,13.7Zm5.9,9.3V45.4h-5.2V23Z"/>
    <path class="cls-1" d="M401.2,27.9V45.4H396V27.9h-2.2V23H396V14.8h5.2V23h4v4.9Z"/>
    <path class="cls-1" d="M421.8,26.9l-4.3,2.2c-.7-1.3-1.5-2-2.5-2a1.5,1.5,0,0,0-1.7,1.6c0,.9.9,1.8,2.9,2.6a18.5,18.5,0,0,1,5.6,3.3,5.7,5.7,0,0,1,1.4,4,7,7,0,0,1-2.4,5.4,7.9,7.9,0,0,1-5.6,2.1c-3.8,0-6.4-1.9-8-5.5l4.4-2.1a17.8,17.8,0,0,0,1.4,2.1,3.3,3.3,0,0,0,2.3.9c1.7,0,2.6-.8,2.6-2.4s-.7-1.8-2-2.6l-1.6-.8-1.6-.7a10.8,10.8,0,0,1-3.1-2.2,5.6,5.6,0,0,1-1.2-3.6,6.6,6.6,0,0,1,2-4.9,7.4,7.4,0,0,1,5-1.9C418.2,22.4,420.4,23.9,421.8,26.9Z"/>
  </g>
  <g>
    <g>
      <path class="cls-2" d="M101.2,28.9s-13.8,3-20.8-5.3-4.8-18-4.8-18"/>
      <path class="cls-3" d="M117.3,22.9s9.2-5.7,10.8-14.5c1.1-6.6-4.6-8.9-7.7-8.3A8.4,8.4,0,0,0,114,5.4S112,.9,105.9,2s-6.5,7-2.8,11.6C110.2,22.3,117.3,22.9,117.3,22.9Z"/>
      <path class="cls-3" d="M121.2,26.1s6.2,8.6,15.7,10c7.1,1.1,9.5-4.3,8.9-7.1-.9-4.6-5.6-6-5.6-6s4.7-1.8,3.6-7.5-7.5-6-12.5-2.5C121.9,19.6,121.2,26.1,121.2,26.1Z"/>
      <path class="cls-4" d="M117.7,29.3S108.5,35,107,43.8a6.8,6.8,0,0,0,7.6,8.4,8.6,8.6,0,0,0,6.5-5.3s1.9,4.4,8,3.3,6.5-7,2.8-11.5C124.8,29.9,117.7,29.3,117.7,29.3Z"/>
      <path class="cls-3" d="M113.4,26.5s-6.2-8.6-15.7-10c-7-1.1-9.5,4.3-8.9,7.1,1,4.6,5.7,6,5.7,6a6.3,6.3,0,0,0-3.6,7.5c.9,4.5,7.5,6,12.4,2.5C112.7,33,113.4,26.5,113.4,26.5Z"/>
    </g>
    <g>
      <path class="cls-5" d="M66.1,47.5s-16.2,1.9-24.7-9.7c-6.6-9.1-5.2-12.6-11.2-18.4a32,32,0,0,0-12-7.6s19-.5,28.7,7.5S66.1,47.5,66.1,47.5Z"/>
      <path class="cls-6" d="M72.6,21.1c-.7.2,14.2,20.5,0,33.2-18.9,16.8-43.3,4.1-43.3,4.1l-9.7-2.3,6.1-8.7s.6,5.7,8.9,6.2c19.8,1.2,18.6-17.7,18.6-17.7S42.7,13.3,57,9.1s15.5,4.5,14.8,4.6l7.4-1.9S73.3,20.9,72.6,21.1Z"/>
      <path class="cls-7" d="M65.7,34c6.5,1.5,6.8,9.3,3.2,14.6-2,2.9-19.7,11.1-32-2.2C21.1,29.5,0,29.8,0,29.8s31.6-9.6,45-.4C51.5,33.8,57,32,65.7,34Z"/>
      <path class="cls-8" d="M62.9,16.9a1.7,1.7,0,1,1,3.3-.4,1.5,1.5,0,0,1-1.3,1.8A1.8,1.8,0,0,1,62.9,16.9Z"/>
      <polygon class="cls-9" points="70.8 11.3 81.6 11.5 72.5 21.5 70.8 11.3"/>
    </g>
  </g>
</svg>
