<svg xmlns="http://www.w3.org/2000/svg" width="276" height="224" viewBox="0 0 276 224">
  <defs>
    <style>
      .cls-1 {
        fill: #9fdde3;
        opacity: 0.7;
      }

      .cls-2 {
        fill: #2d2421;
      }

      .cls-3 {
        fill: #106434;
      }

      .cls-3, .cls-4, .cls-5, .cls-6, .cls-7 {
        fill-rule: evenodd;
      }

      .cls-4 {
        fill: #d3b169;
      }

      .cls-5 {
        fill: #649333;
      }

      .cls-6 {
        fill: #040000;
      }

      .cls-7 {
        fill: #633419;
      }
    </style>
  </defs>
  <title>pagetop_img</title>
  <g id="balloon">
    <path class="cls-1" d="M133.8,5.7c33.9,0,89.3-11.7,118.9-1.6,20.2,6.8,28.8,30.1,19.7,49.7s-28.3,26.5-47,27c-24,.5-44.6-5.4-74.7-5-20.7.3-70.1-.9-56.5,22.6-14.6-6.1-8.9-15-14.6-17.4S25,81.7,9.1,63.1C-10.7,40.1,1.1.5,52.3,4.8,96,8.4,116.8,5.7,133.8,5.7Z" transform="translate(0 0)"/>
    <g>
      <path class="cls-2" d="M59.6,31.4c1.7,1.6,2.5,4,2.5,7.2s-.8,5.6-2.5,7.2-3.9,2.5-6.9,2.5H47.2v9.1H41.6V28.9H52.7A9.4,9.4,0,0,1,59.6,31.4Zm-3.1,7.2c0-3.1-1.4-4.7-4.1-4.7H47.2v9.4h5.2a4.3,4.3,0,0,0,3.1-1.1C56.2,41.5,56.5,40.3,56.5,38.6Z" transform="translate(0 0)"/>
      <path class="cls-2" d="M91.6,57.4H85.8l-1.6-4.9H74.6L73,57.4H67.2l9.2-26.1a3.8,3.8,0,0,1,1.3-1.8,2.8,2.8,0,0,1,1.8-.6,3.5,3.5,0,0,1,1.8.5,4.1,4.1,0,0,1,1.1,1.9Zm-8.7-9.6L79.5,36.5,76,47.8Z" transform="translate(0 0)"/>
      <path class="cls-2" d="M96.9,44V40.5c0-3.7,1-6.6,2.9-8.7a10.6,10.6,0,0,1,8.1-3.1,11.1,11.1,0,0,1,8.3,3.1c1.5,1.5,2.2,3.7,2.2,6.6h-5.2c0-3.2-1.7-4.7-5.1-4.7a6.7,6.7,0,0,0-2.6.5,4.7,4.7,0,0,0-2.3,3.6c-.2,1-.3,1.8-.4,2.5v4.9c0,.4.1,1.1.1,1.9a6.1,6.1,0,0,0,.4,1.9,7.3,7.3,0,0,0,.6,1.4,2.8,2.8,0,0,0,1.1,1.3,6.6,6.6,0,0,0,3.7,1,5.1,5.1,0,0,0,4.9-3V47.8h-3.4V43.2h8.2v8.6a9.5,9.5,0,0,1-4,4.4,11.9,11.9,0,0,1-6,1.5c-4.1,0-7-1.2-8.8-3.4S96.9,48.6,96.9,44Z" transform="translate(0 0)"/>
      <path class="cls-2" d="M146.1,57.4H136c-3.2,0-5.4-.5-6.7-1.6s-1.9-3.1-1.9-5.9v-21h18.7v5H132.9v6.7h9.3l-.4,4.9h-8.9v4a2.9,2.9,0,0,0,.8,2.3,4.4,4.4,0,0,0,2.7.7h9.7Z" transform="translate(0 0)"/>
      <path class="cls-2" d="M185.8,33.9h-7.7V57.4h-5.5V33.9H165v-5h20.8Z" transform="translate(0 0)"/>
      <path class="cls-2" d="M214.2,41.9V44c0,4.8-.9,8.3-2.7,10.4s-4.7,3.3-8.7,3.3-6.8-1.1-8.6-3.3-2.7-5.6-2.7-10.5V41.8q0-6.6,2.7-9.9c1.8-2.1,4.7-3.2,8.6-3.2s6.8,1.1,8.6,3.3S214.2,37.5,214.2,41.9Zm-5.6,2V42.4a14.9,14.9,0,0,0-1-6.1c-.7-1.8-2.3-2.6-4.8-2.6s-4.1.8-4.8,2.6a16.3,16.3,0,0,0-.9,6.1v1.5c0,3.4.5,5.8,1.4,7a4.8,4.8,0,0,0,1.7,1.3,7,7,0,0,0,5.2,0,4.8,4.8,0,0,0,1.7-1.3,5.3,5.3,0,0,0,.9-2A17.5,17.5,0,0,0,208.6,43.9Z" transform="translate(0 0)"/>
      <path class="cls-2" d="M240.2,31.4c1.7,1.6,2.5,4,2.5,7.2s-.8,5.6-2.5,7.2-3.9,2.5-6.9,2.5h-5.5v9.1h-5.6V28.9h11.1A9.4,9.4,0,0,1,240.2,31.4Zm-3.1,7.2c0-3.1-1.4-4.7-4.1-4.7h-5.2v9.4H233a4.3,4.3,0,0,0,3.1-1.1C236.8,41.5,237.1,40.3,237.1,38.6Z" transform="translate(0 0)"/>
    </g>
  </g>
  <g id="bird">
    <path class="cls-3" d="M114.4,201.1s34.4-12.7,39.7-44.6c4-24.9-2.3-30.5,3.9-48.4s16.6-27.3,16.6-27.3S135.7,99.1,124.4,125,114.4,201.1,114.4,201.1Z" transform="translate(0 0)"/>
    <path class="cls-4" d="M74.5,154.6c1.6-.3-7.9,55.6,33.7,66.7,55.1,14.7,91.2-35.7,91.2-35.7l17.2-14.3L195.5,160s4.6,11.9-11.7,21.4c-38.5,22.5-55.3-16.6-55.3-16.6s-1.7-56.2-34.9-50.2S67,139.4,68.6,139l-16.8,3.5S72.9,154.9,74.5,154.6Z" transform="translate(0 0)"/>
    <path class="cls-5" d="M101.4,173.6c-11.5,9.5-4.3,25.5,8.4,32.6,6.9,3.9,50.8,2.2,62.2-36.8,14.6-50.1,57.3-70.9,57.3-70.9s-73.3,12.6-91,44.9C129.9,158.8,116.9,160.7,101.4,173.6Z" transform="translate(0 0)"/>
    <path class="cls-6" d="M89.7,136.3a3.6,3.6,0,0,0-4.7-2.4,3.9,3.9,0,0,0-2.4,4.9,3.6,3.6,0,0,0,4.7,2.4A4,4,0,0,0,89.7,136.3Z" transform="translate(0 0)"/>
    <polygon class="cls-7" points="68.3 133 46.7 144.3 75.2 155.2 68.3 133"/>
  </g>
</svg>
