<svg id="img" xmlns="http://www.w3.org/2000/svg" width="160" height="156.7" viewBox="0 0 160 156.7">
  <defs>
    <style>
      .cls-1 {
        fill: #9fdde3;
      }
    </style>
  </defs>
  <title>about_concept_img02</title>
  <g>
    <g>
      <g>
        <path class="cls-1" d="M12.2,130c1.4-.8,1.7-.3,1.8-.2s-2.8,3.5-4.3,4.7l-.8.6-1.7,1.7a53.2,53.2,0,0,1-6.3,5.7l-.9.3c-.1-.3.2-1.6,6-7l.7-.6.7-.8a39,39,0,0,1,4.8-4.4Z" transform="translate(0)"/>
        <path class="cls-1" d="M3.6,139.7a25.5,25.5,0,0,1,5.9-1.5l1.2-.2c2.8-.8,6.2-1.8,6.6-1s.1.6-.4.9a10.3,10.3,0,0,1-3.8,1l-1.5.3-.7.2a39.8,39.8,0,0,1-4.9.9c-2.6.3-2.9-.1-2.9-.1Z" transform="translate(0)"/>
        <path class="cls-1" d="M4.8,125.5l.5-.2c.3.5.2,3-1.4,9.3a4.5,4.5,0,0,0-.1,1.3c-.1,1-.3,3.3-1,3.7H2.6c-.2,0-1-.5.2-6.7a.6.6,0,0,0,.1-.4l.3-2.1C3.5,128.4,3.8,126.1,4.8,125.5Z" transform="translate(0)"/>
      </g>
      <g>
        <path class="cls-1" d="M36.6,147.6c1.6,0,1.7.6,1.7.7s-4.3,1.5-6.2,1.7h-1l-2.3.5c-2.5.5-6.4,1.4-8.4,1.3h-.9c.1-.3,1-1.2,8.8-2.7l.9-.2,1-.2a29.6,29.6,0,0,1,6.4-1.1Z" transform="translate(0)"/>
        <path class="cls-1" d="M24.1,151.1c1.5,0,4.3,1.2,5.8,1.9l1.2.5c2.7.8,6.1,1.8,6,2.7s-.1.6-.7.5a15.1,15.1,0,0,1-3.8-1.1l-1.4-.6-.7-.2a45.8,45.8,0,0,1-4.6-1.9c-2.4-1.1-2.4-1.6-2.4-1.7Z" transform="translate(0)"/>
        <path class="cls-1" d="M32.9,139.8h.5c-.1.6-1.5,2.6-6.2,7.1l-.8.9c-.7.9-2.1,2.7-2.8,2.7h-.3c-.1-.1-.5-1,3.9-5.5l.3-.4,1.4-1.5C30.2,141.5,31.7,139.7,32.9,139.8Z" transform="translate(0)"/>
      </g>
    </g>
    <g>
      <g>
        <path class="cls-1" d="M60,116c1.3-.8,1.6-.4,1.7-.3s-2.8,3.6-4.3,4.7l-.7.7-1.8,1.6c-1.8,1.9-4.5,4.7-6.3,5.7l-.9.4c0-.3.3-1.6,6-7.1l.7-.6.7-.7A25,25,0,0,1,60,116Z" transform="translate(0)"/>
        <path class="cls-1" d="M51.3,125.7c1.3-.8,4.3-1.3,5.9-1.6l1.3-.2c2.7-.8,6.1-1.7,6.5-1s.2.6-.3.9a13.4,13.4,0,0,1-3.8,1.1l-1.6.3h-.6a41.9,41.9,0,0,1-4.9,1c-2.6.3-2.9-.2-2.9-.2S51,125.8,51.3,125.7Z" transform="translate(0)"/>
        <path class="cls-1" d="M52.5,111.4h.6c.2.5.1,2.9-1.5,9.3,0,.2-.1.7-.1,1.2s-.3,3.4-1,3.7h-.2c-.2-.1-.9-.6.3-6.7v-.5a6.4,6.4,0,0,0,.3-2C51.2,114.3,51.5,112,52.5,111.4Z" transform="translate(0)"/>
      </g>
      <g>
        <path class="cls-1" d="M85.1,133c1.8-.2,1.9.3,1.9.5s-1.2,1-2.6,1.4l-4.3.9h-1l-2.5.6a49.9,49.9,0,0,1-8.5,1.4c-.6,0-.8-.1-.9-.2s1-1.2,8.9-2.7l.9-.2,1.1-.2a41.8,41.8,0,0,1,7-1.6Z" transform="translate(0)"/>
        <path class="cls-1" d="M71.9,137c1.4.1,4.3,1.3,5.9,1.9l1.2.4c2.9.8,6.9,1.4,6.8,2.3s-.2.6-.9.7a13.2,13.2,0,0,1-4.3-.9l-1.5-.5-.7-.2-4.8-1.8c-2.4-1.2-2.3-1.7-2.3-1.7S71.5,137,71.9,137Z" transform="translate(0)"/>
        <path class="cls-1" d="M80.7,125.5c.1-.1.3,0,.5.1s-1.3,2.7-6.3,7.3l-.8,1c-.7.8-2.1,2.6-2.8,2.6h-.2c-.1-.1-.6-.9,3.8-5.5l.3-.3a11.5,11.5,0,0,0,1.4-1.7C78,127.3,79.5,125.5,80.7,125.5Z" transform="translate(0)"/>
      </g>
    </g>
    <g>
      <g>
        <path class="cls-1" d="M93.8,96.2c.3-1.2.8-1.1,1-1.1s.5,4,.2,5.7v.8c-.1.4-.1,1.1-.2,2.1s-.9,5.9-1.9,7.4-.5.7-.6.7-.2-.5-.1-1.7.6-3.2,1.1-6.6c0-.4.1-.6.1-.8v-.9a33.3,33.3,0,0,1,.5-5.6Z" transform="translate(0)"/>
        <path class="cls-1" d="M93.6,107.7a26,26,0,0,1,3.6-4,5.7,5.7,0,0,1,.8-.8c1.5-2.1,3.2-4.9,4-4.6s.6.3.4.8a8.5,8.5,0,0,1-2,3.1l-1,1.2-.4.5a24,24,0,0,1-3.2,3.3,5.7,5.7,0,0,1-1.9,1.1c-.3.1-.4,0-.4,0S93.4,108,93.6,107.7Z" transform="translate(0)"/>
        <path class="cls-1" d="M86,96.1l.2-.3c.3.1.8.7,1.6,1.8a42.2,42.2,0,0,1,3.2,5.8,6.4,6.4,0,0,0,.6,1.1c.5.9,1.6,2.9,1.3,3.4l-.2.2s-.3,0-.8-.8a45.4,45.4,0,0,1-2.6-4.8l-.2-.4-1-1.7C87,98.7,85.8,96.9,86,96.1Z" transform="translate(0)"/>
      </g>
      <g>
        <path class="cls-1" d="M123,90.7c1.1-1.3,1.5-1.1,1.7-1s-1.7,4.8-2.9,6.5l-.6.9-1.3,2.3c-1.4,2.5-3.7,6.2-5.5,7.8s-.7.6-.8.6,0-.6.6-1.9,2-3.4,4.3-7.1l.5-.8.5-1a46.9,46.9,0,0,1,3.5-6.3Z" transform="translate(0)"/>
        <path class="cls-1" d="M116.8,103.6c1.1-1.2,4.1-2.6,5.6-3.4l1.2-.7c2.6-1.8,5.8-4.3,6.4-3.6a.8.8,0,0,1-.1,1.1,16,16,0,0,1-3.6,2.7l-1.5.9-.7.4a33.4,33.4,0,0,1-4.7,2.5c-2.6,1.1-3,.7-3,.7S116.5,103.9,116.8,103.6Z" transform="translate(0)"/>
        <path class="cls-1" d="M114.5,88.9a.5.5,0,0,1,.5-.3c.3.4,1.2,2.7,1.1,9.6,0,.3.1.8.1,1.3s.4,3.6-.2,4.2h-.2c-.3,0-1-.4-1.2-7v-.4a16.4,16.4,0,0,0-.2-2.2C114.1,92.1,113.8,89.8,114.5,88.9Z" transform="translate(0)"/>
      </g>
    </g>
    <g>
      <g>
        <path class="cls-1" d="M107.1,55.4c-.3-1.4.2-1.5.4-1.6s1,.8,1.6,1.9a19.2,19.2,0,0,1,1.2,3.3l.3.8c.1.4.5,1.1.9,2.1s2.2,5.8,2.3,7.8a4.1,4.1,0,0,1-.1.9c-.2,0-.5-.3-1-1.4l-1.1-2.5c-.4-1.1-.9-2.4-1.5-4.2l-.3-.7-.4-.9-1.3-2.8a23.3,23.3,0,0,1-1-2.7Z" transform="translate(0)"/>
        <path class="cls-1" d="M112.6,66.2c-.1-1.4.7-4.1,1.1-5.6s.2-1,.2-1.2c.4-2.7.6-6,1.5-6.1s.6,0,.7.6a10.6,10.6,0,0,1-.4,3.7l-.2,1.5-.2.7a27.2,27.2,0,0,1-1.1,4.6,6.8,6.8,0,0,1-1,2l-.4.4A.8.8,0,0,1,112.6,66.2Z" transform="translate(0)"/>
        <path class="cls-1" d="M100.2,59.6c-.1-.2,0-.3,0-.5s2.9.8,7.9,4.7l1.1.6c.9.5,2.9,1.7,2.9,2.4V67c-.2.1-.9.4-5.9-3.1l-.4-.2L104,62.6C102.3,61.6,100.4,60.5,100.2,59.6Z" transform="translate(0)"/>
      </g>
      <g>
        <path class="cls-1" d="M130.9,37.9c.5-1.3,1-1.2,1.2-1.2s.5,1,.4,2.2a31.3,31.3,0,0,1-.5,3.6v1a15.7,15.7,0,0,0-.1,2.6c-.2,2.9-.5,7.2-1.3,9.3a2,2,0,0,1-.5.9c-.1-.1-.3-.5-.3-1.9s.2-3.9.5-8.2a4.6,4.6,0,0,0,.1-1V44.1a23.3,23.3,0,0,1,.6-6.2Z" transform="translate(0)"/>
        <path class="cls-1" d="M130.9,51.2a30.6,30.6,0,0,1,3.5-5.6l.7-1.1a39.7,39.7,0,0,1,2.4-3.7c.7-.9,1.4-1.5,1.8-1.4s.5.3.4.8a21.1,21.1,0,0,1-2.1,3.3l-.9,1.4-.4.6a40.7,40.7,0,0,1-3.1,4.4c-1.8,2.2-2.3,2-2.3,2A.8.8,0,0,1,130.9,51.2Z" transform="translate(0)"/>
        <path class="cls-1" d="M122.3,39.3l.3-.5a8.8,8.8,0,0,1,1.7,1.9,38,38,0,0,1,3.5,6l.7,1.1c.7,1,2,3,1.7,3.8s0,.1-.1.2-.4.1-1-.6a37.2,37.2,0,0,1-3.2-5l-.2-.4L124.5,44C123.3,42.3,122,40.4,122.3,39.3Z" transform="translate(0)"/>
      </g>
    </g>
    <g>
      <g>
        <path class="cls-1" d="M126.4,1.8c.9-1.2,1.3-1,1.5-.9s-1.1,4.2-2.2,5.9a4.1,4.1,0,0,1-.5.9L124.1,10,122,14.8c-.6,1.7-1.2,3.4-1.7,4.5a6.2,6.2,0,0,1-.5,1.1c-.1-.1-.4-.5-.3-2a25.3,25.3,0,0,1,2.9-8.7,4.4,4.4,0,0,0,.5-.9,4.7,4.7,0,0,1,.5-1,33.1,33.1,0,0,1,1.5-3.3,29.5,29.5,0,0,1,1.5-2.7Z" transform="translate(0)"/>
        <path class="cls-1" d="M121.5,14.9a10,10,0,0,1,2.5-2.6,23.3,23.3,0,0,1,2.8-1.9l1.2-.8c2.3-1.7,4.9-3.8,5.6-3.2s.4.5,0,.9a11.2,11.2,0,0,1-3,2.4l-1.4.8-.5.4L124.2,14a18.3,18.3,0,0,1-2.4,1.5c-.4.2-.5.1-.5.1S121.3,15.2,121.5,14.9Z" transform="translate(0)"/>
        <path class="cls-1" d="M117.6.4l.5-.4a5.9,5.9,0,0,1,.8,2.4c.3,1.5.5,3.9.8,7.5a4.5,4.5,0,0,0,.3,1.3c.3,1.1,1.1,3.3.7,4.1s-.1.2-.3.2-.4.1-.9-.6-1.2-2.4-1.7-5.9V8.6a15.7,15.7,0,0,0-.4-2.3C117,4.1,116.6,1.6,117.6.4Z" transform="translate(0)"/>
      </g>
      <g>
        <path class="cls-1" d="M155.8,7.9c1.5-.7,1.7-.3,1.8-.1s-3.3,3.3-5,4.4l-.9.5-2,1.5a42.1,42.1,0,0,1-7.6,4.9l-.9.2c0-.3.6-1.5,7.4-6.2l.8-.6.8-.6a38.8,38.8,0,0,1,5.6-4Z" transform="translate(0)"/>
        <path class="cls-1" d="M145.4,16.7c1.5-.6,4.6-.7,6.3-.8H153c3-.5,6.7-1.2,6.9-.4s.1.7-.5.9-2.5.6-4.1.8H153a38,38,0,0,1-5.2.4c-2.7,0-2.9-.6-2.9-.6S145.1,16.9,145.4,16.7Z" transform="translate(0)"/>
        <path class="cls-1" d="M148.9,2.6h.5c.2.5-.1,3-2.7,9.1l-.4,1.3c-.3,1-.9,3.3-1.6,3.6h-.3c-.2-.1-.8-.7,1.5-6.7V9.4l.6-2.1C147.2,5.3,147.8,3.1,148.9,2.6Z" transform="translate(0)"/>
      </g>
    </g>
  </g>
</svg>
