<svg xmlns="http://www.w3.org/2000/svg" viewBox="0 0 36 43"><defs><style>.cls-1{fill:#68c3c8;}</style></defs><title>blog_sidebar_title_img01</title><g id="レイヤー_2" data-name="レイヤー 2"><path class="cls-1" d="M25.58,36.09s.8,1,1.8,2.29a4.19,4.19,0,0,1,1.91,1.43c1.69,2.2,4.08,2.12,6.5,3.1L36,43a12.3,12.3,0,0,1-1.25-2.18s1.13,1.2,1.21.64-3-5.13-3.54-6.81-4.75-12.1-6.36-14.34-3-7.69-7.16-7.21a9.34,9.34,0,0,1-3.37-4.65C15,7,14.48,1.88,10.14.6S1.69,0,1.69,3.4C1.69,4.44,0,5,0,6.45s.4,2.24.64,1.6a2.19,2.19,0,0,1,.73-1,3,3,0,0,0,1.28,1.6,8.29,8.29,0,0,0,.73,3.93c.56,1,0,5.92,1.93,7.45C6,23.75,7,27,10.86,29.84a10.77,10.77,0,0,1,1.21,3.05c0,.48-.65,1.12-1,1s-1-.8-1.37-.72-.48.56-.48.56S8,33.53,7.56,34s-.48,1-.32,1.2.08,1.12.32.72.48-.72.48-.72,1.85-.08,2.42-.08a21.63,21.63,0,0,1,2.57.48,3.57,3.57,0,0,0,.89.32c.24,0,.08.72.32.56a1.52,1.52,0,0,0,.4-.64s.24-.72-.32-1-.89-.08-.89-.8,1.77-.8,1.77-1.92c1.45,1.52,8.61,4.4,10,4.56C25.82,36.49,25.58,36.09,25.58,36.09Z"/></g></svg>