<svg id="_6" data-name="6" xmlns="http://www.w3.org/2000/svg" viewBox="0 0 41.92 38.21"><defs><style>.cls-1{fill:#68c3c8;}</style></defs><title>blog_sidebar_title_img03</title><path class="cls-1" d="M2.55,15.4c.17,1-2,6.45,1.36,10.55s13.5,4.68,16.48,6.77a4.55,4.55,0,0,1,2.11,4.07c-.06.88,1,.59.94-.38-.14-1.26-.13-1.57-1.67-4.42-.51-.94.46-6.42-4-12.31-2.46-3.22-10.43-4-13-4.39C2.61,14.94,2.55,15.4,2.55,15.4Z" transform="translate(-2 -1.29)"/><path class="cls-1" d="M22.5,38.19c.4-1.19.37-2.68,1.7-7.26.37-1.26-.57-2.34-.81-3.62-1.14-6.22-.08-13.15,3.1-17.36A19.76,19.76,0,0,1,37.24,2.34a5.66,5.66,0,0,0,2.4-.9c.23-.17.45-.21.48-.05a9.62,9.62,0,0,0,1.8,3.27c2.76,3.72,3.27,10.53-2.36,16.52C32,29.23,26.41,28.84,25.4,32a59.57,59.57,0,0,0-1.86,7.36C23.37,39.72,22.1,39.39,22.5,38.19Z" transform="translate(-2 -1.29)"/></svg>