<svg id="レイヤー_1" data-name="レイヤー 1" xmlns="http://www.w3.org/2000/svg" viewBox="0 0 28.01 43.67"><defs><style>.cls-1{fill:#68c3c8;}</style></defs><title>アートボード 1</title><path class="cls-1" d="M27.26,40.76c-.43-.72-2.1-2.73-2.05-3.11a3.07,3.07,0,0,0,0-1.44c-.2-.59-.77-.1-1.22,0a1.61,1.61,0,0,1-1.51-.95,3,3,0,0,1-.18-2.41c.33-.64,1.88-4.32,1.93-3.64s.63.26,1.95-3.41-.37-8.1-1.08-9.41a3.77,3.77,0,0,0-2-2c-.63-.25-1.18-1.5-1.85-2.37s-3.12-6.3-3.72-7.16A9,9,0,0,0,12.89.52C9.67-.91,5.17.86,4,2.85S3.36,8.29,3.49,9A18.41,18.41,0,0,1,4,11.2c.16,1.21,0,4.63-1.8,6.44S.44,22.17.11,25.92a11.82,11.82,0,0,0,1.23,6.36c.22.82,1,2.51,1.14,3s.53,0,.91-1.05c.25,1.27.88,1.6.9,1.9s-.75,1.12-1,1.29a3.09,3.09,0,0,0-1.49,1.48c-.39.94-1.44,1-1.67,2A2.83,2.83,0,0,0,.4,43.06c.06.17.11.31.15.44l.47.17c0-.21.05-.4.15-.44s0-.61.05-1.3a4.17,4.17,0,0,1,1.53-2c.29-.1-.29,1.31-.23,2.07a1.77,1.77,0,0,0,.3,1c.1.3.12.68.43.66s.07-1,.37-1.1,0-1.37,0-1.82a2.78,2.78,0,0,1,.93-1.81c.43-.26,1.1-.54,1.13-1.15s-.61,0-.79-.32.73-1.5,1.25-1.61,2.65.86,3.94.92,4.38-1.31,4.38-1.31a11.7,11.7,0,0,0,3.45-.64,4.26,4.26,0,0,0,2-1.67c.06-.3,1.06,1,1.25,1.51s.56,1.4.27,1.5-.17.77.13.74a1.21,1.21,0,0,1,1.44,1,6.65,6.65,0,0,1,.34,2.63c0,.46.5.5.61,1s.43.73.53,0,0,0,.12-.47-.33-1.41-.28-1.8,1.79,2.68,2,3.27a.88.88,0,0,0,1,.61c.11,0,.17.09.24.23a3.45,3.45,0,0,1,.46-.12c0-.23,0-.47,0-.61A4.06,4.06,0,0,0,27.26,40.76Z"/></svg>