<svg id="レイヤー_3" data-name="レイヤー 3" xmlns="http://www.w3.org/2000/svg" viewBox="0 0 36.38 40.52"><defs><style>.cls-1{fill:#68c3c8;}</style></defs><title>アートボード 1</title><path class="cls-1" d="M16.8,30.07a34.75,34.75,0,0,0-.7,10.45l2.29-.42a30.14,30.14,0,0,1-1.19-10C17.23,29.75,16.88,29.75,16.8,30.07Z"/><path class="cls-1" d="M32.57,17.54c-4.51,2-11.29.5-13.27,0-.22-2-.74-9,1.86-13.21C24.22-.61,32.33.2,30,8.24,38.21,7,37.87,15.19,32.57,17.54Z"/><path class="cls-1" d="M17.44,3.83c2,4.54.51,11.35,0,13.34-2,.22-8.94.74-13.13-1.88C-.61,12.22.19,4.07,8.19,6.46,7-1.84,15.11-1.49,17.44,3.83Z"/><path class="cls-1" d="M3.81,19c4.51-2,11.29-.5,13.27,0,.22,2,.74,9-1.86,13.21-3.06,4.94-11.17,4.13-8.8-3.91C-1.83,29.56-1.49,21.38,3.81,19Z"/><path class="cls-1" d="M18.94,32.74c-2-4.54-.51-11.35,0-13.34,2-.22,9-.74,13.14,1.88,4.92,3.07,4.11,11.22-3.88,8.83C29.41,38.41,21.27,38.06,18.94,32.74Z"/></svg>