<svg xmlns="http://www.w3.org/2000/svg" viewBox="0 0 32.11 32"><defs><style>.cls-1{fill:#1a6e78;}</style></defs><title>アセット 1</title><g id="レイヤー_2" data-name="レイヤー 2"><g id="_8" data-name="8"><path class="cls-1" d="M30.76,1.39h0C28-1.39,8.7-.79,2.84,10.61.12,15.92,0,21.5,1.88,25.48c.32.66,1,2,.37,2.56L0,30.3,1.7,32,4,29.75c.57-.57,1.76,0,2.33.27,4,2.09,9.77,2,15.2-.77C32.88,23.4,33.47,4.1,30.76,1.39ZM24,18.87l-9.19-.75-9,9a.66.66,0,0,1-.93-.93l3.4-3.39-1.73-5A.64.64,0,0,1,7,17a.68.68,0,0,1,.68.15.58.58,0,0,1,.15.25l1.52,4.4L19.94,11.13s0-.1-.06-.17L18.7,4.25a.66.66,0,0,1,.1-.49.7.7,0,0,1,.43-.27.67.67,0,0,1,.57.18A.73.73,0,0,1,20,4L21,10l6.62-6.62a.67.67,0,0,1,.93,0,.66.66,0,0,1,0,.93L16,16.91l8.09.66a.65.65,0,0,1,.41.19.61.61,0,0,1,.19.51A.65.65,0,0,1,24,18.87Z"/></g></g></svg>